<svg width="42" height="42" viewBox="0 0 42 42" fill="none" xmlns="http://www.w3.org/2000/svg">
<path fill-rule="evenodd" clip-rule="evenodd" d="M7.31802 1.31802C8.16193 0.474106 9.30653 0 10.5 0H28.5C28.8978 0 29.2794 0.158035 29.5607 0.43934L41.5607 12.4393C41.842 12.7206 42 13.1022 42 13.5V37.5C42 38.6935 41.5259 39.8381 40.682 40.682C39.8381 41.5259 38.6935 42 37.5 42H15.3138C15.5951 41.3052 15.75 40.5457 15.75 39.75V38.25H17.25C20.5637 38.25 23.25 35.5637 23.25 32.25C23.25 28.9363 20.5637 26.25 17.25 26.25H15.75V24.75C15.75 21.4363 13.0637 18.75 9.74997 18.75C8.33106 18.75 7.02719 19.2425 6 20.0659V4.5C6 3.30653 6.47411 2.16193 7.31802 1.31802Z" fill="#FF9900"/>
<path fill-rule="evenodd" clip-rule="evenodd" d="M9.75 22.5C10.9926 22.5 12 23.5074 12 24.75V30H17.25C18.4926 30 19.5 31.0074 19.5 32.25C19.5 33.4926 18.4926 34.5 17.25 34.5H12V39.75C12 40.9926 10.9926 42 9.75 42C8.50736 42 7.5 40.9926 7.5 39.75V34.5H2.25C1.00736 34.5 0 33.4926 0 32.25C0 31.0074 1.00736 30 2.25 30H7.5V24.75C7.5 23.5074 8.50736 22.5 9.75 22.5Z" fill="white"/>
</svg>
