<svg width="42" height="42" viewBox="0 0 42 42" fill="none" xmlns="http://www.w3.org/2000/svg">
<path fill-rule="evenodd" clip-rule="evenodd" d="M11.2877 1.76035C12.2723 0.77578 13.6076 0.222656 15 0.222656H27C28.3924 0.222656 29.7277 0.77578 30.7123 1.76035C31.6969 2.74491 32.25 4.08027 32.25 5.47266V11.4727C32.25 12.7153 31.2426 13.7227 30 13.7227C28.7574 13.7227 27.75 12.7153 27.75 11.4727V5.47266C27.75 5.27375 27.671 5.08298 27.5303 4.94233C27.3897 4.80167 27.1989 4.72266 27 4.72266H15C14.8011 4.72266 14.6103 4.80167 14.4697 4.94233C14.329 5.08298 14.25 5.27375 14.25 5.47266V11.4727C14.25 12.7153 13.2426 13.7227 12 13.7227C10.7574 13.7227 9.75 12.7153 9.75 11.4727V5.47266C9.75 4.08027 10.3031 2.74491 11.2877 1.76035Z" fill="white"/>
<path d="M4.5 9C2.01472 9 0 11.0147 0 13.5V37.5C0 39.9853 2.01472 42 4.5 42H37.5C39.9853 42 42 39.9853 42 37.5V13.5C42 11.0147 39.9853 9 37.5 9H4.5Z" fill="#FF9900"/>
<path fill-rule="evenodd" clip-rule="evenodd" d="M21 12C22.2426 12 23.25 13.0074 23.25 14.25V15.8331C24.6219 16.0636 25.8366 16.76 26.7221 17.7494C27.2372 18.325 27.6442 19.0026 27.9084 19.7502C28.3225 20.9218 27.7085 22.2073 26.5368 22.6214C25.3652 23.0355 24.0798 22.4214 23.6657 21.2498C23.6006 21.0659 23.4995 20.8964 23.369 20.7505C23.0911 20.4401 22.6945 20.25 22.2504 20.25H19.3478C18.7418 20.25 18.2505 20.7413 18.2505 21.3474C18.2505 21.863 18.6096 22.3092 19.1133 22.4194L23.5326 23.3861C26.2879 23.9888 28.2504 26.4297 28.2504 29.2486C28.2504 32.2208 26.0886 34.6908 23.25 35.167V36.75C23.25 37.9926 22.2426 39 21 39C19.7574 39 18.75 37.9926 18.75 36.75V35.1669C16.5797 34.8027 14.8079 33.2737 14.0925 31.2497C13.6784 30.0781 14.2925 28.7926 15.4641 28.3785C16.6357 27.9644 17.9212 28.5785 18.3353 29.7501C18.5422 30.3357 19.1009 30.7499 19.7505 30.7499H22.2504C23.0778 30.7499 23.7504 30.078 23.7504 29.2486C23.7504 28.5429 23.2588 27.9326 22.571 27.7821L18.1517 26.8154C15.5821 26.2533 13.7505 23.9778 13.7505 21.3474C13.7505 18.458 15.9398 16.0799 18.75 15.7816V14.25C18.75 13.0074 19.7574 12 21 12Z" fill="white"/>
</svg>
