<svg width="42" height="42" viewBox="0 0 42 42" fill="none" xmlns="http://www.w3.org/2000/svg">
<path fill-rule="evenodd" clip-rule="evenodd" d="M12.0704 3.25646C15.0119 3.4696 18.0771 4.90356 21.0112 7.80564C23.9446 4.90436 27.007 3.47316 29.9459 3.26473C33.2628 3.0295 36.1949 4.37005 38.3164 6.4851C42.4874 10.6435 43.7973 18.1682 38.6216 23.3439C38.6041 23.3613 38.5862 23.3784 38.5679 23.395L22.0182 38.3857C21.4467 38.9033 20.5757 38.9033 20.0042 38.3857L3.45446 23.395C3.43616 23.3784 3.41827 23.3613 3.4008 23.3439C-1.80188 18.1412 -0.499062 10.6157 3.68564 6.46048C5.81231 4.3488 8.75046 3.01591 12.0704 3.25646Z" fill="#FF9900"/>
</svg>
