<svg width="147" height="168" viewBox="0 0 147 168" fill="none" xmlns="http://www.w3.org/2000/svg">
<path opacity="0.2" d="M97.1873 141.66C89.2257 146.709 82.5931 150.743 79.149 150.863C76.4233 150.951 75.274 149.323 75.0984 147.91C75.0307 147.351 74.8282 146.816 74.5085 146.353C74.1887 145.889 73.7612 145.51 73.2627 145.248C70.6367 143.727 65.2811 144.326 61.3742 146.597C57.4672 148.868 56.4137 151.936 59.0396 153.457C59.7898 153.884 61.1906 154.427 63.6529 154.511C66.1152 154.594 68.9087 155.285 68.781 156.845C68.5416 159.463 62.6233 162.755 52.4189 167.999C50.4235 166.838 48.5758 165.741 46.9595 164.751C40.9295 161.103 36.9587 158.705 33.1116 158.908C29.8112 159.084 27.9555 161.071 27.3569 162.72C26.9342 163.798 26.146 164.693 25.1301 165.25C22.4722 166.794 17.815 166.607 14.7541 164.827C11.6932 163.047 11.366 160.365 14.0238 158.84C14.7741 158.406 16.1429 157.831 18.4136 157.559C21.267 157.212 24.7111 156.139 25.0144 154.239C25.4134 151.98 20.401 149.211 13.4811 145.376C11.769 144.434 9.98515 143.456 8.17334 142.403L10.8551 140.806C19.998 135.399 23.3662 133.064 27.4048 132.956C30.1066 132.869 31.2679 134.497 31.4435 135.91C31.5109 136.467 31.712 136.999 32.0295 137.462C32.347 137.925 32.7717 138.304 33.2672 138.567C35.9051 140.088 41.2488 139.493 45.1677 137.223C49.0866 134.952 50.1322 131.879 47.4943 130.358C46.744 129.923 45.3513 129.393 42.889 129.297C40.4267 129.201 37.6331 128.523 37.7728 126.962C38.0003 124.225 43.759 120.904 53.0295 116.107L55.0249 117.269C63.4294 122.145 68.5216 125.087 73.0711 124.851C76.3595 124.68 78.2272 122.692 78.8258 121.04C79.2432 119.962 80.0275 119.066 81.0406 118.51C83.7025 116.969 88.3717 117.165 91.4166 118.933C94.4616 120.701 94.8128 123.399 92.1549 124.919C91.4047 125.354 90.0358 125.929 87.7651 126.188C84.9197 126.539 81.4876 127.625 81.1644 129.512C80.7653 132.023 86.1688 135.299 93.8869 139.765L97.1873 141.66Z" fill="black"/>
<path opacity="0.2" d="M129.696 123.829C129.544 125.729 132.749 126.535 135.538 126.623C137.753 126.723 138.99 127.19 139.645 127.557C141.956 128.894 140.946 131.639 137.394 133.683C133.842 135.726 129.109 136.309 126.799 134.972C126.361 134.736 125.987 134.398 125.709 133.985C125.431 133.573 125.257 133.099 125.202 132.605C125.019 130.989 123.638 129.141 120.338 129.229C116.546 129.337 111.801 132.725 104.646 137.103C102.607 138.36 100.292 139.773 97.8257 141.229L96.1097 140.243C88.0444 135.598 81.6791 131.927 82.0702 129.468C82.3296 127.892 85.3386 126.99 87.8249 126.675C90.3111 126.36 91.8875 125.721 92.7455 125.218C95.7864 123.47 95.5031 120.429 92.103 118.49C88.7028 116.55 83.4709 116.359 80.43 118.091C79.2839 118.716 78.393 119.723 77.9118 120.936C77.401 122.381 75.8286 124.109 73.1029 124.26C68.9406 124.488 63.9481 121.599 55.6952 116.822L53.9233 115.788C56.4974 114.475 58.9756 113.258 61.1785 112.196C68.7251 108.505 73.7095 106.063 73.8931 103.892C74.0448 101.988 70.8442 101.186 68.0506 101.078C65.8358 100.99 64.5986 100.523 63.9481 100.156C61.6335 98.8193 62.6432 96.0697 66.183 94.0304C69.7228 91.9912 74.4797 91.4005 76.7944 92.7374C77.2314 92.9741 77.6048 93.3129 77.8827 93.7249C78.1607 94.137 78.3349 94.6101 78.3907 95.1039C78.5783 96.7003 79.9671 98.5679 83.2554 98.4841C86.9509 98.3724 89.2615 96.7122 95.8423 92.1947C97.9933 90.7181 100.232 89.1976 102.627 87.6133C104.442 88.6668 106.218 89.6446 107.938 90.5864C114.443 94.1781 119.579 97.0395 119.24 99.0668C118.993 100.631 115.984 101.545 113.497 101.86C111.011 102.176 109.415 102.814 108.569 103.305C105.516 105.065 105.811 108.094 109.207 110.057C112.604 112.021 117.851 112.188 120.904 110.428C122.046 109.801 122.932 108.795 123.41 107.583C123.8 106.617 124.464 105.788 125.321 105.197C126.179 104.606 127.19 104.279 128.231 104.259C131.663 104.075 135.55 106.422 141.401 109.974C143.041 110.971 144.901 112.089 146.928 113.262C145.028 114.24 143.185 115.162 141.469 116.031C133.04 120.29 129.891 121.487 129.696 123.829Z" fill="black"/>
<path d="M73.8971 92.7856C74.0488 90.886 70.8442 90.0839 68.0546 89.9721C65.8398 89.8883 64.6026 89.4214 63.9482 89.0502C63.585 88.8772 63.2768 88.6071 63.0577 88.2697C62.8387 87.9323 62.7173 87.5408 62.707 87.1387V97.0517C62.7178 97.4532 62.839 97.844 63.0572 98.1812C63.2754 98.5184 63.5823 98.789 63.9442 98.9633C64.1997 99.1074 64.4666 99.2303 64.7423 99.3305C70.2695 96.5888 73.7415 94.5934 73.8971 92.7856Z" fill="#37474F"/>
<path d="M73.103 113.166V123.083C75.8287 122.931 77.4051 121.203 77.9119 119.759V109.846C77.4051 111.29 75.8287 113.014 73.103 113.166Z" fill="#455A64"/>
<path d="M55.6956 105.731L53.9277 104.697V114.614L55.6956 115.648C63.9485 120.437 68.945 123.314 73.1033 123.087V113.166C68.945 113.397 63.9485 110.508 55.6956 105.731Z" fill="#263238"/>
<path d="M92.1073 107.38C88.7191 105.416 83.4752 105.253 80.4343 107.001C79.2878 107.626 78.3958 108.633 77.9121 109.846V119.763C78.3958 118.55 79.2878 117.543 80.4343 116.918C82.0825 115.972 84.3811 115.589 86.6798 115.748C87.0789 115.673 87.454 115.613 87.8252 115.569C90.3473 115.266 91.8878 114.611 92.7458 114.112C95.7867 112.364 95.5034 109.335 92.1073 107.38Z" fill="#37474F"/>
<path d="M108.585 92.1905C109.435 91.6996 110.999 91.0491 113.517 90.7458C116.036 90.4425 119.013 89.5286 119.26 87.9523C119.275 87.8895 119.281 87.8252 119.28 87.7607V97.6937C119.286 97.7521 119.286 97.811 119.28 97.8693C119.069 99.2062 116.85 100.06 114.659 100.479C112.763 100.373 110.916 99.8443 109.251 98.9309C105.831 96.9754 105.54 93.9504 108.585 92.1905Z" fill="#37474F"/>
<path d="M96.1101 129.109C88.2762 124.596 82.0466 121 82.0586 118.562V128.483C82.0586 130.925 88.2842 134.517 96.1101 139.026L97.8181 140.016V130.095L96.1101 129.109Z" fill="#263238"/>
<path d="M137.398 122.549C133.858 124.604 129.113 125.179 126.799 123.842L126.639 133.667L126.799 133.759C129.113 135.096 133.858 134.521 137.398 132.47C139.665 131.165 140.89 129.572 140.882 128.243V118.406C140.85 119.719 139.633 121.272 137.398 122.549Z" fill="#455A64"/>
<path d="M125.19 121.487C125.007 119.866 123.63 118.023 120.326 118.11V128.027C123.63 127.94 125.007 129.787 125.19 131.404C125.242 131.868 125.399 132.315 125.65 132.709C125.901 133.104 126.24 133.435 126.639 133.678L126.799 123.853C126.359 123.619 125.982 123.281 125.702 122.869C125.422 122.456 125.246 121.982 125.19 121.487Z" fill="#37474F"/>
<path d="M104.638 125.968C102.591 127.229 100.284 128.642 97.8179 130.095V140.016C100.284 138.559 102.607 137.147 104.638 135.889C111.794 131.5 116.539 128.123 120.326 128.016V118.099C116.539 118.206 111.794 121.595 104.638 125.968Z" fill="#455A64"/>
<path d="M146.964 102.147V112.065C145.064 113.042 143.217 113.964 141.501 114.834C140.591 115.289 139.745 115.712 138.951 116.103C137.855 115.717 136.704 115.511 135.542 115.493C132.749 115.393 129.556 114.591 129.7 112.699C129.896 110.364 133.044 109.167 141.501 104.921C143.225 104.047 145.064 103.129 146.964 102.147Z" fill="#455A64"/>
<path d="M129.696 112.707C129.545 114.607 132.749 115.409 135.539 115.501C137.754 115.597 138.991 116.063 139.645 116.435C141.956 117.772 140.946 120.517 137.394 122.56C133.843 124.604 129.11 125.186 126.799 123.849C126.361 123.614 125.987 123.275 125.709 122.863C125.431 122.451 125.257 121.977 125.203 121.483C125.019 119.867 123.638 118.019 120.338 118.107C116.547 118.215 111.802 121.603 104.646 125.981C102.607 127.238 100.292 128.65 97.8259 130.107L96.1219 129.117C88.0566 124.468 81.6913 120.801 82.0824 118.342C82.3418 116.766 85.3508 115.864 87.8371 115.549C90.3233 115.233 91.8997 114.595 92.7577 114.092C95.7986 112.344 95.5153 109.303 92.1152 107.36C88.715 105.416 83.4831 105.233 80.4422 106.981C79.2961 107.606 78.4052 108.612 77.924 109.826C77.4132 111.271 75.8408 112.999 73.1152 113.15C68.9528 113.378 63.9603 110.488 55.7074 105.711L53.9355 104.678C56.5096 103.365 58.9879 102.148 61.1908 101.086C68.7373 97.3947 73.7217 94.9524 73.9053 92.7774C74.057 90.8778 70.8564 90.0757 68.0628 89.9839C65.848 89.8961 64.6108 89.4292 63.9603 89.058C61.6457 87.7251 62.6554 84.9755 66.1952 82.9362C69.735 80.8969 74.492 80.3063 76.8066 81.6432C77.2436 81.8799 77.617 82.2186 77.895 82.6307C78.1729 83.0427 78.3472 83.5158 78.4029 84.0097C78.5905 85.606 79.9793 87.4737 83.2676 87.3859C86.9631 87.2781 89.2737 85.618 95.8545 81.1004C98.0055 79.6239 100.244 78.1034 102.639 76.519C104.455 77.5726 106.23 78.5503 107.95 79.4922C114.455 83.0838 119.592 85.9452 119.252 87.9725C119.005 89.5369 115.996 90.4508 113.51 90.7661C111.023 91.0813 109.427 91.7199 108.581 92.2107C105.528 93.9706 105.823 96.9996 109.22 98.9631C112.616 100.927 117.864 101.094 120.916 99.3342C122.058 98.7069 122.945 97.7004 123.423 96.4888C123.811 95.5197 124.476 94.6865 125.334 94.0932C126.193 93.4998 127.208 93.1726 128.252 93.1525C131.684 92.969 135.571 95.3155 141.421 98.8633C143.061 99.865 144.921 100.982 146.948 102.156C145.049 103.133 143.205 104.055 141.489 104.925C133.04 109.163 129.892 110.357 129.696 112.707Z" fill="#455A64"/>
<path d="M102.675 77.4488C104.271 78.3587 105.804 79.2127 107.308 80.0388L107.587 80.1905C110.872 82.0143 113.705 83.5826 115.729 84.9794C118.335 86.7792 118.522 87.5774 118.474 87.8448C118.339 88.6988 116.116 89.6286 113.422 89.9559C110.728 90.2831 109.104 90.9775 108.19 91.5043C106.57 92.4341 105.68 93.7591 105.68 95.2277C105.68 96.8719 106.825 98.4801 108.829 99.6375C110.924 100.773 113.274 101.357 115.657 101.334C117.628 101.382 119.578 100.926 121.324 100.009C122.63 99.2897 123.641 98.134 124.181 96.7442C124.62 95.5469 125.965 94.0783 128.295 93.9506C128.407 93.9506 128.519 93.9506 128.635 93.9506C131.763 93.9506 135.646 96.3012 141.006 99.5377C142.163 100.244 143.632 101.134 145.284 102.104L142.686 103.417L141.13 104.215C139.933 104.809 138.871 105.34 137.889 105.811C131.504 108.98 129.11 110.165 128.89 112.623C128.864 112.947 128.906 113.272 129.012 113.578C129.119 113.885 129.288 114.166 129.509 114.403C130.897 115.964 134.162 116.239 135.495 116.287C137.538 116.375 138.659 116.786 139.238 117.113C139.479 117.218 139.685 117.389 139.834 117.605C139.983 117.822 140.068 118.076 140.08 118.338C140.08 119.396 138.883 120.777 136.987 121.858C134.892 123.061 132.527 123.715 130.111 123.762C129.098 123.808 128.09 123.596 127.182 123.143C126.852 122.972 126.57 122.722 126.361 122.414C126.152 122.107 126.023 121.753 125.985 121.383C125.769 119.495 124.217 117.293 120.545 117.293H120.302C116.906 117.388 112.955 119.855 107.484 123.279C106.442 123.925 105.365 124.596 104.215 125.298C101.821 126.783 99.7615 128.024 97.8101 129.181L96.5091 128.427C92.6021 126.176 88.9266 124.037 86.3805 122.257C83.156 119.978 82.7888 118.913 82.8567 118.486C83.0043 117.616 85.1793 116.706 87.921 116.371C90.5788 116.047 92.231 115.345 93.1449 114.814C94.7611 113.884 95.6511 112.564 95.6511 111.095C95.6511 109.451 94.5017 107.846 92.5063 106.705C90.4103 105.568 88.0587 104.984 85.6742 105.009C83.7117 104.96 81.7694 105.414 80.0312 106.326C78.7224 107.048 77.7063 108.204 77.1579 109.594C76.7348 110.792 75.4019 112.256 73.0594 112.388H72.6403C68.7773 112.388 64.0043 109.622 56.0986 105.045L55.5918 104.75C57.7229 103.676 59.7621 102.674 61.53 101.816C69.5954 97.8695 74.4681 95.4871 74.6996 92.8532C74.724 92.5305 74.6817 92.2063 74.5753 91.9008C74.4688 91.5952 74.3006 91.3149 74.081 91.0773C72.7002 89.5209 69.4318 89.2335 68.0949 89.1817C66.0556 89.1018 64.9342 88.6908 64.3595 88.3835C64.1181 88.2787 63.9109 88.1084 63.7614 87.8918C63.6119 87.6753 63.526 87.4212 63.5135 87.1583C63.5135 86.1008 64.7107 84.724 66.5943 83.6425C68.6944 82.4405 71.0631 81.7859 73.4824 81.7389C74.4951 81.6924 75.503 81.9039 76.4116 82.3535C76.7407 82.5265 77.0221 82.7779 77.231 83.0856C77.4398 83.3933 77.5696 83.7476 77.6088 84.1174C77.8243 86.001 79.3767 88.2039 83.0442 88.2039H83.2877C87.1068 88.0922 89.4574 86.4799 95.7389 82.1659L96.3016 81.7668C97.9936 80.6055 100.22 79.085 102.687 77.4648M102.659 76.527C100.264 78.1233 98.0136 79.6318 95.8745 81.1084C89.2698 85.6099 86.9552 87.2701 83.2637 87.3778H83.0442C79.9115 87.3778 78.5826 85.57 78.399 83.9977C78.3432 83.5038 78.169 83.0307 77.891 82.6187C77.6131 82.2066 77.2397 81.8678 76.8027 81.6311C75.7736 81.1133 74.6295 80.8661 73.4784 80.9128C70.9205 80.9568 68.4147 81.6429 66.1913 82.9082C62.6515 84.9475 61.6418 87.6971 63.9564 89.03C64.6069 89.4012 65.8441 89.8681 68.0589 89.9559C70.8525 90.0636 74.0451 90.8658 73.9014 92.7494C73.7178 94.9244 68.7134 97.3667 61.1868 101.058C58.9839 102.132 56.5057 103.349 53.9316 104.65L55.7035 105.683C63.6531 110.285 68.5777 113.134 72.6483 113.134H73.1112C75.8369 112.983 77.4093 111.255 77.9201 109.81C78.4013 108.596 79.2922 107.59 80.4383 106.964C82.0564 106.127 83.8609 105.715 85.6821 105.767C87.9262 105.743 90.1392 106.292 92.1113 107.364C95.5114 109.319 95.7947 112.348 92.7538 114.096C91.8957 114.599 90.3593 115.249 87.8332 115.553C85.307 115.856 82.3379 116.75 82.0785 118.346C81.6794 120.788 88.0646 124.456 96.118 129.121L97.822 130.111C100.288 128.654 102.611 127.242 104.642 125.984C111.798 121.595 116.543 118.218 120.334 118.111H120.557C123.698 118.111 125.019 119.911 125.199 121.491C125.253 121.985 125.427 122.459 125.705 122.871C125.983 123.283 126.357 123.622 126.795 123.857C127.822 124.377 128.965 124.626 130.115 124.58C132.669 124.535 135.171 123.849 137.39 122.584C140.942 120.541 141.952 117.795 139.641 116.459C138.987 116.087 137.75 115.62 135.535 115.525C132.741 115.425 129.549 114.623 129.692 112.731C129.888 110.397 133.037 109.203 141.497 104.957C143.213 104.087 145.057 103.165 146.956 102.188C144.929 101.014 143.069 99.8969 141.433 98.8952C135.786 95.4352 131.975 93.1525 128.635 93.1525H128.236C127.195 93.1731 126.183 93.4993 125.326 94.0903C124.469 94.6813 123.804 95.5112 123.415 96.4768C122.937 97.6884 122.05 98.6949 120.909 99.3222C119.285 100.169 117.472 100.588 115.641 100.539C113.397 100.564 111.184 100.014 109.212 98.9431C105.816 96.9796 105.52 93.9506 108.573 92.1907C109.419 91.6998 110.968 91.0493 113.502 90.746C116.036 90.4427 118.997 89.5289 119.244 87.9525C119.584 85.9252 114.456 83.0798 107.943 79.4721C106.227 78.5303 104.447 77.5526 102.631 76.499L102.659 76.527Z" fill="#37474F"/>
<path d="M97.1873 130.522C89.2257 135.57 82.5931 139.605 79.149 139.724C76.4233 139.812 75.274 138.184 75.0984 136.771C75.0313 136.212 74.8291 135.677 74.5093 135.213C74.1895 134.75 73.7616 134.371 73.2627 134.109C70.6367 132.589 65.2811 133.187 61.3742 135.458C57.4672 137.729 56.4137 140.798 59.0396 142.318C59.7898 142.741 61.1906 143.284 63.6529 143.372C66.1152 143.46 68.9087 144.142 68.781 145.706C68.5416 148.324 62.6233 151.613 52.4189 156.861C50.4235 155.699 48.5758 154.602 46.9595 153.612C40.9295 149.965 36.9587 147.566 33.1116 147.77C29.8112 147.945 27.9555 149.933 27.3569 151.581C26.9342 152.659 26.146 153.555 25.1301 154.111C22.4722 155.655 17.815 155.468 14.7541 153.688C11.6932 151.908 11.366 149.226 14.0238 147.702C14.7741 147.267 16.1429 146.692 18.4136 146.421C21.267 146.074 24.7111 145 25.0144 143.1C25.4134 140.842 20.401 138.072 13.4811 134.237C11.769 133.295 9.98515 132.317 8.17334 131.264L10.8551 129.668C19.998 124.26 23.3662 121.926 27.4048 121.814C30.1066 121.73 31.2679 123.358 31.4435 124.771C31.5109 125.328 31.712 125.861 32.0295 126.323C32.347 126.786 32.7717 127.165 33.2672 127.429C35.9051 128.949 41.2488 128.355 45.1677 126.084C49.0866 123.813 50.1322 120.74 47.4943 119.22C46.744 118.785 45.3513 118.254 42.889 118.158C40.4267 118.062 37.6331 117.384 37.7728 115.824C38.0003 113.086 43.759 109.766 53.0295 104.969L55.0249 106.13C63.4294 111.007 68.5216 113.948 73.0711 113.713C76.3595 113.541 78.2272 111.554 78.8258 109.901C79.2432 108.823 80.0275 107.928 81.0406 107.371C83.7025 105.831 88.3717 106.026 91.4166 107.794C94.4616 109.562 94.8128 112.26 92.1549 113.8C91.4047 114.235 90.0358 114.81 87.7651 115.069C84.9197 115.417 81.4876 116.506 81.1644 118.394C80.7653 120.904 86.1688 124.18 93.8869 128.646L97.1873 130.522Z" fill="#FAFAFA"/>
<path d="M52.9817 105.871L54.6099 106.813C62.8788 111.602 67.8673 114.503 72.5165 114.503C72.712 114.503 72.9156 114.503 73.0991 114.503C76.7826 114.307 78.8818 112.045 79.5642 110.165C79.9178 109.264 80.5777 108.516 81.4279 108.054C82.6996 107.395 84.1189 107.074 85.5503 107.12C87.4602 107.1 89.3435 107.569 91.0216 108.481C92.3785 109.279 93.1567 110.245 93.1607 111.175C93.1647 112.104 92.3985 112.707 91.744 113.106C91.0895 113.505 89.7885 114.032 87.6495 114.275C86.0531 114.467 80.8652 115.325 80.3543 118.266C79.8555 121.299 85.0116 124.448 93.472 129.337L95.627 130.578C88.3798 135.155 82.1981 138.842 79.1092 138.958H78.9257C76.8824 138.958 76.0084 137.793 75.8767 136.707C75.796 136.025 75.5514 135.372 75.1636 134.804C74.7758 134.236 74.2565 133.771 73.6499 133.447C72.3384 132.764 70.8737 132.429 69.3957 132.473C66.4399 132.518 63.5429 133.306 60.9712 134.764C58.3134 136.296 56.7889 138.236 56.7889 140.088C56.7889 141.285 57.4434 142.322 58.6446 143.013C59.8458 143.703 61.5459 144.098 63.6171 144.17C65.6125 144.25 67.3205 144.705 67.8473 145.3C67.8928 145.342 67.9286 145.394 67.952 145.452C67.9754 145.51 67.986 145.572 67.983 145.635C67.7794 147.866 61.1468 151.469 52.419 155.951C50.719 154.965 49.0189 153.956 47.3468 152.93C41.4085 149.338 37.4856 146.944 33.5507 146.944C33.3831 146.944 33.2155 146.944 33.0479 146.944C29.3644 147.135 27.2652 149.398 26.5868 151.274C26.2262 152.176 25.5613 152.925 24.7072 153.389C23.4346 154.049 22.0138 154.372 20.5807 154.327C18.6791 154.359 16.8005 153.907 15.1214 153.014C13.7685 152.216 12.9903 151.254 12.9903 150.324C12.9903 149.394 13.7565 148.772 14.399 148.4C15.0415 148.029 16.3465 147.479 18.4696 147.223C20.0659 147.028 25.2938 146.17 25.7607 143.232C26.2356 140.415 21.5664 137.829 13.8284 133.539L13.553 133.387C12.3039 132.701 11.0189 131.994 9.71787 131.252L10.3045 130.901L11.2224 130.354L14.3791 128.478C21.0237 124.512 24.0567 122.704 27.389 122.612H27.5685C29.6078 122.612 30.4778 123.777 30.6095 124.859C30.6877 125.541 30.9305 126.195 31.317 126.763C31.7035 127.331 32.2222 127.796 32.8284 128.119C34.1514 128.8 35.6278 129.127 37.1144 129.069C40.071 129.026 42.9688 128.236 45.5389 126.774C48.1968 125.242 49.7213 123.306 49.7213 121.455C49.7213 120.258 49.0588 119.22 47.8656 118.53C46.6723 117.839 44.9962 117.444 42.8891 117.36C40.8937 117.288 39.2016 116.837 38.6708 116.235C38.6231 116.192 38.5866 116.137 38.5643 116.077C38.5421 116.016 38.5348 115.952 38.5431 115.888C38.7427 113.493 45.4392 109.786 52.9817 105.879M52.9817 104.969C43.7072 109.758 37.9525 113.086 37.725 115.824C37.5854 117.384 40.3869 118.071 42.8412 118.158C45.2955 118.246 46.6963 118.785 47.4425 119.22C50.0844 120.74 49.0388 123.825 45.1199 126.084C42.6769 127.473 39.9241 128.225 37.1144 128.271C35.7721 128.325 34.4382 128.035 33.2394 127.429C32.7438 127.166 32.3192 126.786 32.0017 126.324C31.6841 125.861 31.4831 125.328 31.4156 124.771C31.244 123.394 30.1386 121.814 27.5805 121.814H27.377C23.3383 121.926 19.9701 124.26 10.8273 129.668L8.14551 131.264C9.95731 132.318 11.7372 133.295 13.4532 134.237C20.3732 138.072 25.3656 140.842 24.9865 143.101C24.6832 145 21.2392 146.074 18.3858 146.421C16.127 146.692 14.7582 147.267 13.996 147.702C11.3381 149.234 11.6534 151.928 14.7263 153.688C16.5227 154.671 18.5411 155.177 20.5887 155.157C22.1619 155.202 23.7203 154.842 25.1142 154.111C26.1301 153.555 26.9183 152.659 27.3411 151.581C27.9397 149.933 29.7954 147.945 33.0957 147.77C33.2514 147.77 33.403 147.77 33.5587 147.77C37.2621 147.77 41.1411 150.12 46.9437 153.624C48.54 154.614 50.3957 155.711 52.403 156.873C62.6114 151.625 68.5297 148.337 68.7652 145.719C68.8929 144.154 66.0914 143.484 63.637 143.384C61.1827 143.284 59.774 142.753 59.0237 142.33C56.3978 140.81 57.4274 137.729 61.3583 135.47C63.805 134.077 66.5643 133.325 69.3797 133.283C70.7191 133.229 72.05 133.518 73.2468 134.121C73.7458 134.383 74.1736 134.762 74.4935 135.226C74.8133 135.689 75.0155 136.224 75.0826 136.783C75.2542 138.16 76.3476 139.74 78.9257 139.74H79.1332C82.5772 139.621 89.2098 135.586 97.1714 130.538L93.8671 128.638C86.1489 124.172 80.7295 120.896 81.1445 118.386C81.4678 116.498 84.8998 115.409 87.7452 115.062C90.024 114.802 91.3928 114.227 92.1351 113.792C94.7929 112.252 94.4697 109.558 91.3968 107.786C89.6029 106.812 87.5916 106.308 85.5503 106.322C83.9789 106.277 82.4222 106.636 81.0288 107.363C80.0156 107.92 79.2313 108.816 78.8139 109.894C78.2153 111.546 76.3476 113.533 73.0592 113.705C72.8796 113.705 72.7001 113.705 72.5165 113.705C68.1027 113.705 63.0863 110.803 55.013 106.122L53.0176 104.961L52.9817 104.969Z" fill="#FF9900"/>
<path d="M13.4572 144.147C11.7412 143.205 9.95731 142.227 8.14551 141.174V131.257C9.95731 132.31 11.7372 133.284 13.4572 134.23C20.3732 138.065 25.3656 140.831 24.9865 143.089C24.6832 144.993 21.2392 146.067 18.3858 146.414C18.1384 146.442 17.9029 146.478 17.6794 146.514C16.3864 145.771 14.9657 144.985 13.4572 144.147Z" fill="#FF9900"/>
<path opacity="0.2" d="M13.4572 144.147C11.7412 143.205 9.95731 142.227 8.14551 141.174V131.257C9.95731 132.31 11.7372 133.284 13.4572 134.23C20.3732 138.065 25.3656 140.831 24.9865 143.089C24.6832 144.993 21.2392 146.067 18.3858 146.414C18.1384 146.442 17.9029 146.478 17.6794 146.514C16.3864 145.771 14.9657 144.985 13.4572 144.147Z" fill="black"/>
<path d="M40.6623 127.82C38.9981 127.493 37.6412 126.831 37.741 125.733V115.924C37.741 117.408 40.4667 118.067 42.8612 118.147C45.3274 118.246 46.7162 118.777 47.4665 119.212C50.1044 120.733 49.0628 123.818 45.1399 126.076C43.7471 126.87 42.2471 127.459 40.6862 127.824L40.6623 127.82Z" fill="#FF9900"/>
<path opacity="0.1" d="M40.6623 127.82C38.9981 127.493 37.6412 126.831 37.741 125.733V115.924C37.741 117.408 40.4667 118.067 42.8612 118.147C45.3274 118.246 46.7162 118.777 47.4665 119.212C50.1044 120.733 49.0628 123.818 45.1399 126.076C43.7471 126.87 42.2471 127.459 40.6862 127.824L40.6623 127.82Z" fill="black"/>
<path d="M14.7225 153.689C13.0424 152.723 12.1884 151.482 12.1924 150.305V160.198C12.1924 161.395 13.0305 162.624 14.7185 163.594C17.7914 165.378 22.4487 165.561 25.0945 164.021V154.112C22.4686 155.656 17.8114 155.469 14.7225 153.689Z" fill="#FF9900"/>
<path opacity="0.1" d="M14.7225 153.689C13.0424 152.723 12.1884 151.482 12.1924 150.305V160.198C12.1924 161.395 13.0305 162.624 14.7185 163.594C17.7914 165.378 22.4487 165.561 25.0945 164.021V154.112C22.4686 155.656 17.8114 155.469 14.7225 153.689Z" fill="black"/>
<path d="M25.1299 154.111V164.032C26.1426 163.473 26.9287 162.578 27.3527 161.502V151.581C26.9301 152.658 26.1437 153.553 25.1299 154.111Z" fill="#FF9900"/>
<path d="M25.1299 154.111V164.032C26.1426 163.473 26.9287 162.578 27.3527 161.502V151.581C26.9301 152.658 26.1437 153.553 25.1299 154.111Z" fill="#FF9900"/>
<path d="M46.9556 153.613C40.9296 149.965 36.9548 147.563 33.1077 147.77C29.8073 147.946 27.9516 149.933 27.353 151.581V161.502C27.9516 159.85 29.8073 157.863 33.1077 157.687C36.9548 157.484 40.9296 159.882 46.9556 163.53C48.552 164.52 50.4077 165.617 52.415 166.778V156.861C50.4077 155.696 48.5719 154.61 46.9556 153.613Z" fill="#FF9900"/>
<path opacity="0.2" d="M46.9556 153.613C40.9296 149.965 36.9548 147.563 33.1077 147.77C29.8073 147.946 27.9516 149.933 27.353 151.581V161.502C27.9516 159.85 29.8073 157.863 33.1077 157.687C36.9548 157.484 40.9296 159.882 46.9556 163.53C48.552 164.52 50.4077 165.617 52.415 166.778V156.861C50.4077 155.696 48.5719 154.61 46.9556 153.613Z" fill="black"/>
<path d="M52.415 156.861V166.778C62.6234 161.534 68.5417 158.242 68.7772 155.624V145.707C68.5417 148.325 62.6114 151.613 52.415 156.861Z" fill="#FF9900"/>
<path d="M81.1608 118.37C81.488 116.478 84.9201 115.392 87.7615 115.045C90.0442 114.786 91.4131 114.211 92.1513 113.776C93.3486 113.074 93.9512 112.14 93.9512 111.158V121.043C93.9512 122.033 93.3805 122.987 92.1593 123.693C91.4131 124.128 90.0442 124.703 87.7695 124.962C83.4754 122.284 80.8695 120.137 81.1608 118.37Z" fill="#FF9900"/>
<path opacity="0.2" d="M81.1608 118.37C81.488 116.478 84.9201 115.392 87.7615 115.045C90.0442 114.786 91.4131 114.211 92.1513 113.776C93.3486 113.074 93.9512 112.14 93.9512 111.158V121.043C93.9512 122.033 93.3805 122.987 92.1593 123.693C91.4131 124.128 90.0442 124.703 87.7695 124.962C83.4754 122.284 80.8695 120.137 81.1608 118.37Z" fill="black"/>
<path d="M73.2669 134.11C70.637 132.589 65.2854 133.188 61.3744 135.459C57.4635 137.729 56.4139 140.798 59.0398 142.319C59.7901 142.742 61.1908 143.284 63.6531 143.372C64.3941 143.399 65.1319 143.483 65.86 143.624C68.7174 142.953 71.5628 143.045 73.2669 144.023C73.7648 144.284 74.1917 144.663 74.5108 145.126C74.83 145.589 75.0317 146.122 75.0986 146.681V136.771C75.0323 136.212 74.8309 135.678 74.5117 135.214C74.1926 134.75 73.7653 134.371 73.2669 134.11Z" fill="#FF9900"/>
<path opacity="0.2" d="M73.2669 134.11C70.637 132.589 65.2854 133.188 61.3744 135.459C57.4635 137.729 56.4139 140.798 59.0398 142.319C59.7901 142.742 61.1908 143.284 63.6531 143.372C64.3941 143.399 65.1319 143.483 65.86 143.624C68.7174 142.953 71.5628 143.045 73.2669 144.023C73.7648 144.284 74.1917 144.663 74.5108 145.126C74.83 145.589 75.0317 146.122 75.0986 146.681V136.771C75.0323 136.212 74.8309 135.678 74.5117 135.214C74.1926 134.75 73.7653 134.371 73.2669 134.11Z" fill="black"/>
<path d="M79.1489 139.724V149.641C82.593 149.522 89.2256 145.487 97.1872 140.439V130.518C89.2256 135.57 82.593 139.605 79.1489 139.724Z" fill="#FF9900"/>
<path d="M75.0986 136.771V146.689C75.2742 148.101 76.4236 149.729 79.1493 149.642V139.725C76.4236 139.812 75.2742 138.184 75.0986 136.771Z" fill="#FF9900"/>
<path opacity="0.1" d="M75.0986 136.771V146.689C75.2742 148.101 76.4236 149.729 79.1493 149.642V139.725C76.4236 139.812 75.2742 138.184 75.0986 136.771Z" fill="black"/>
<path d="M97.8177 130.095V140.016L97.1872 139.649V130.518L93.8868 128.618C88.2678 125.37 83.87 122.748 82.0542 120.597V118.562C82.0542 121 88.2718 124.596 96.1057 129.109L97.8177 130.095Z" fill="#263238"/>
<path d="M141.501 104.917C143.217 104.047 145.061 103.125 146.96 102.148C144.933 100.974 143.073 99.857 141.433 98.8553C135.571 95.3075 131.684 92.9609 128.264 93.1445C127.223 93.1652 126.211 93.4913 125.354 94.0823C124.497 94.6733 123.832 95.5032 123.443 96.4688C122.965 97.6804 122.078 98.6869 120.937 99.3142C117.884 101.074 112.64 100.911 109.24 98.9431C105.839 96.9756 105.548 93.9506 108.601 92.1907C109.447 91.6998 110.996 91.0493 113.53 90.746C116.064 90.4427 119.025 89.5289 119.272 87.9525C119.612 85.9252 114.483 83.0798 107.971 79.4721C106.255 78.5303 104.475 77.5526 102.659 76.499C100.264 78.0953 98.0136 79.6038 95.8745 81.0804C89.2698 85.6099 86.9552 87.2701 83.2637 87.3778C79.9753 87.4656 78.5866 85.6099 78.399 84.0017C78.3432 83.5078 78.169 83.0347 77.891 82.6226C77.6131 82.2106 77.2397 81.8718 76.8027 81.6351C74.4881 80.2982 69.743 80.8769 66.1913 82.9281C62.6395 84.9794 61.6418 87.7171 63.9564 89.05C64.6069 89.4211 65.8441 89.888 68.0589 89.9758C70.8525 90.0836 74.0451 90.8857 73.9014 92.7694C73.7178 94.9443 68.7134 97.3867 61.1868 101.078C58.9839 102.152 56.5057 103.369 53.9316 104.67L55.7035 105.703C63.9564 110.492 68.9489 113.37 73.1112 113.142C75.8369 112.991 77.4093 111.263 77.9201 109.818C78.4013 108.604 79.2922 107.598 80.4383 106.972C83.4792 105.225 88.7231 105.376 92.1113 107.352C95.4994 109.327 95.7947 112.336 92.7538 114.084C91.8957 114.587 90.3593 115.237 87.8332 115.541C85.307 115.844 82.3379 116.738 82.0785 118.334C81.6794 120.777 88.0646 124.444 96.118 129.109L97.822 130.099C100.288 128.642 102.611 127.23 104.642 125.972C111.798 121.583 116.543 118.206 120.334 118.099C123.634 118.011 125.015 119.859 125.199 121.475C125.253 121.969 125.427 122.443 125.705 122.855C125.983 123.267 126.357 123.606 126.795 123.841C129.106 125.178 133.851 124.604 137.39 122.552C140.93 120.501 141.952 117.763 139.641 116.427C138.987 116.055 137.75 115.589 135.535 115.493C132.741 115.393 129.549 114.591 129.692 112.699C129.892 110.357 133.04 109.163 141.501 104.917Z" fill="#FAFAFA"/>
<path d="M102.675 77.4488C104.271 78.3587 105.804 79.2127 107.308 80.0388L107.587 80.1905C110.872 82.0143 113.705 83.5826 115.729 84.9794C118.335 86.7792 118.522 87.5774 118.474 87.8448C118.339 88.6988 116.116 89.6286 113.422 89.9559C110.728 90.2831 109.104 90.9775 108.19 91.5043C106.57 92.4341 105.68 93.7591 105.68 95.2277C105.68 96.8719 106.825 98.4801 108.829 99.6375C110.924 100.773 113.274 101.357 115.657 101.334C117.628 101.382 119.578 100.926 121.324 100.009C122.63 99.2897 123.641 98.134 124.181 96.7442C124.62 95.5469 125.965 94.0783 128.295 93.9506C128.407 93.9506 128.519 93.9506 128.635 93.9506C131.763 93.9506 135.646 96.3012 141.006 99.5377C142.163 100.244 143.632 101.134 145.284 102.104L142.69 103.417L141.13 104.215C139.933 104.809 138.871 105.34 137.889 105.811C131.504 108.98 129.11 110.165 128.89 112.623C128.864 112.947 128.906 113.272 129.012 113.578C129.119 113.885 129.288 114.166 129.509 114.403C130.897 115.964 134.162 116.239 135.495 116.287C137.538 116.375 138.659 116.786 139.238 117.113C139.479 117.218 139.685 117.389 139.834 117.605C139.983 117.822 140.068 118.076 140.08 118.338C140.08 119.396 138.883 120.777 136.987 121.858C134.892 123.061 132.527 123.715 130.111 123.762C129.098 123.808 128.09 123.596 127.182 123.143C126.852 122.972 126.57 122.722 126.361 122.414C126.152 122.107 126.023 121.753 125.985 121.383C125.769 119.495 124.217 117.293 120.549 117.293H120.302C116.906 117.388 112.955 119.855 107.484 123.279C106.442 123.925 105.365 124.596 104.215 125.298C101.821 126.787 99.7615 128.028 97.8101 129.181L96.5091 128.427C92.6021 126.176 88.9266 124.037 86.3805 122.257C83.156 119.978 82.7888 118.913 82.8567 118.486C83.0043 117.616 85.1793 116.706 87.921 116.371C90.5788 116.047 92.231 115.345 93.1449 114.814C94.7611 113.884 95.6511 112.564 95.6511 111.095C95.6511 109.451 94.5017 107.846 92.5063 106.705C90.4103 105.568 88.0587 104.984 85.6742 105.009C83.7117 104.96 81.7694 105.414 80.0312 106.326C78.7224 107.048 77.7063 108.204 77.1579 109.594C76.7348 110.792 75.4019 112.256 73.0594 112.388C72.9197 112.388 72.78 112.388 72.6363 112.388C68.7773 112.388 64.0043 109.622 56.0986 105.045L55.5918 104.754C57.7229 103.676 59.7621 102.674 61.53 101.816C69.5954 97.8695 74.4681 95.4871 74.6996 92.8532C74.724 92.5305 74.6817 92.2063 74.5753 91.9008C74.4688 91.5952 74.3006 91.3149 74.081 91.0773C72.7002 89.5249 69.4318 89.2335 68.0949 89.1817C66.0556 89.1018 64.9342 88.6908 64.3595 88.3835C64.1181 88.2787 63.9109 88.1084 63.7614 87.8918C63.6119 87.6753 63.526 87.4212 63.5135 87.1583C63.5135 86.1008 64.7107 84.724 66.5943 83.6425C68.6944 82.4405 71.0631 81.7859 73.4824 81.7389C74.4951 81.6924 75.503 81.9039 76.4116 82.3535C76.7407 82.5265 77.0221 82.7779 77.231 83.0856C77.4398 83.3933 77.5696 83.7476 77.6088 84.1174C77.8243 86.001 79.3767 88.2039 83.0442 88.2039H83.2877C87.1068 88.0922 89.4574 86.4799 95.7389 82.1659L96.3016 81.7668C97.9936 80.6055 100.22 79.085 102.687 77.4648M102.659 76.527C100.264 78.1233 98.0136 79.6318 95.8745 81.1084C89.2698 85.6099 86.9552 87.2701 83.2637 87.3778H83.0442C79.9115 87.3778 78.5826 85.57 78.399 83.9977C78.3432 83.5038 78.169 83.0307 77.891 82.6187C77.6131 82.2066 77.2397 81.8678 76.8027 81.6311C75.7736 81.1133 74.6295 80.8661 73.4784 80.9128C70.9205 80.9568 68.4147 81.6429 66.1913 82.9082C62.6515 84.9475 61.6418 87.6971 63.9564 89.03C64.6069 89.4012 65.8441 89.8681 68.0589 89.9559C70.8525 90.0636 74.0451 90.8658 73.9014 92.7494C73.7178 94.9244 68.7134 97.3667 61.1868 101.058C58.9839 102.132 56.5057 103.349 53.9316 104.65L55.7035 105.683C63.6531 110.285 68.5777 113.134 72.6443 113.134C72.8039 113.134 72.9556 113.134 73.1112 113.134C75.8369 112.983 77.4093 111.255 77.9201 109.81C78.4013 108.596 79.2922 107.59 80.4383 106.964C82.0564 106.127 83.8609 105.715 85.6821 105.767C87.9262 105.743 90.1392 106.292 92.1113 107.364C95.5114 109.319 95.7947 112.348 92.7538 114.096C91.8957 114.599 90.3593 115.249 87.8332 115.553C85.307 115.856 82.3379 116.75 82.0785 118.346C81.6794 120.788 88.0646 124.456 96.118 129.121L97.822 130.111C100.288 128.654 102.611 127.242 104.642 125.984C111.798 121.595 116.543 118.218 120.334 118.111H120.557C123.698 118.111 125.019 119.911 125.199 121.491C125.253 121.985 125.427 122.459 125.705 122.871C125.983 123.283 126.357 123.622 126.795 123.857C127.822 124.377 128.965 124.626 130.115 124.58C132.669 124.535 135.171 123.849 137.39 122.584C140.942 120.541 141.952 117.795 139.641 116.459C138.987 116.087 137.75 115.62 135.535 115.525C132.741 115.425 129.549 114.623 129.692 112.731C129.888 110.397 133.037 109.203 141.497 104.957C143.213 104.087 145.057 103.165 146.956 102.188C144.929 101.014 143.069 99.8969 141.429 98.8952C135.786 95.4392 131.971 93.1525 128.635 93.1525H128.236C127.195 93.1731 126.183 93.4993 125.326 94.0903C124.469 94.6813 123.804 95.5112 123.415 96.4768C122.937 97.6884 122.05 98.6949 120.909 99.3222C119.285 100.169 117.472 100.588 115.641 100.539C113.397 100.564 111.184 100.014 109.212 98.9431C105.816 96.9796 105.52 93.9506 108.573 92.1907C109.419 91.6998 110.968 91.0493 113.502 90.746C116.036 90.4427 118.997 89.5289 119.244 87.9525C119.584 85.9252 114.456 83.0798 107.943 79.4721C106.227 78.5303 104.447 77.5526 102.631 76.499L102.659 76.527Z" fill="#455A64"/>
<path opacity="0.15" d="M48.7752 134.868C52.3669 133.172 55.8947 131.277 59.6021 129.908C62.6351 128.778 65.8197 127.976 68.6292 126.368C69.6847 125.814 70.6067 125.036 71.331 124.089C71.6883 123.613 71.9335 123.061 72.0482 122.477C72.1629 121.892 72.1442 121.289 71.9934 120.713C71.5425 119.264 70.2375 118.785 68.8567 118.718C65.4526 118.578 62.0724 119.46 58.9317 120.809C55.791 122.158 52.8857 123.957 49.9844 125.749C47.2915 127.475 44.3752 128.825 41.3165 129.76C38.0879 130.726 34.7557 131.52 31.7905 133.176C31.0124 133.549 30.3533 134.13 29.8869 134.856C28.9531 136.544 30.5175 138.292 32.1337 138.643C34.0819 139.013 36.0829 139.005 38.0281 138.62C41.7914 137.969 45.3072 136.508 48.7752 134.868Z" fill="black"/>
<path opacity="0.15" d="M109.814 97.7628C108.976 96.7491 107.535 96.3062 106.035 96.5257C104.534 96.7452 103.154 97.5154 101.821 98.2696C99.6137 99.5227 97.4068 100.772 95.3117 102.213C94.2342 102.959 92.9172 103.669 92.0313 104.655C91.4446 105.317 90.8341 106.052 90.7383 106.934C90.5587 108.466 91.8677 109.328 93.1607 109.651C94.2096 109.886 95.2948 109.911 96.3533 109.723C99.0351 109.324 101.541 108.151 103.88 106.846C106.079 105.625 108.35 104.419 109.758 102.244C110.243 101.569 110.52 100.768 110.556 99.9378C110.571 99.1483 110.308 98.3788 109.814 97.7628Z" fill="black"/>
<path d="M110.189 87.2314C111.111 87.3633 111.958 87.8137 112.583 88.5045C113.441 89.598 115.345 92.8664 115.72 93.2296C115.51 93.5897 115.219 93.8958 114.87 94.1235L113.852 92.9741C113.601 92.7666 113.493 92.5352 113.505 93.2136C113.517 93.892 113.613 94.5904 113.597 95.608C113.597 96.4062 113.748 97.9227 112.376 99.4551C111.095 100.888 109.718 101.578 108.76 101.71C108.189 101.79 107.188 101.658 107.251 100.513C107.283 99.9101 107.555 97.9267 107.651 96.8292C107.746 95.7318 110.189 87.2314 110.189 87.2314Z" fill="#263238"/>
<path d="M110.46 87.4825C110.007 87.0802 109.638 86.5919 109.375 86.0458C109.127 85.543 107.866 82.7614 106.358 78.9024C104.41 73.9418 101.17 70.2783 100.168 68.4146C99.0429 66.3872 98.1 64.2637 97.3507 62.0693L93.34 64.7511L88.0323 64.6553C87.9804 65.4535 88.3036 66.4911 88.8943 67.7123V67.7442C88.9461 67.8519 89.006 67.9677 89.0659 68.0794C90.2631 70.402 92.2585 73.2115 94.5133 76.0609L94.5651 76.1288L94.645 76.2286C96.8159 78.9742 99.1984 81.7677 101.282 84.1861V84.1263C102.956 86.0385 104.495 88.0655 105.887 90.1922C107.771 93.2771 107.643 95.9788 107.655 97.627C107.655 98.6566 108.453 98.8522 109.542 97.9543C110.224 97.4188 110.77 96.7297 111.135 95.9432C111.5 95.1567 111.673 94.2951 111.642 93.4287C111.877 89.9049 111.57 88.8912 110.46 87.4825Z" fill="#B16668"/>
<path d="M97.2309 64.8191L88.0122 64.6475C88.0122 64.7472 88.0122 64.855 88.0122 64.9627C88.0122 65.0026 88.0122 65.0465 88.0122 65.0864C88.0122 65.1263 88.0122 65.2301 88.0322 65.3059C88.0521 65.3818 88.0322 65.4137 88.0641 65.4696L88.1 65.6691C88.1 65.7329 88.1359 65.8008 88.1519 65.8686L88.1998 66.0482C88.1998 66.0682 88.1998 66.0881 88.2197 66.1041C88.2397 66.12 90.5503 67.7004 94.8643 68.4347C94.8643 68.4347 94.996 75.3148 96.1374 78.0923L97.4184 79.6447C97.622 75.5343 97.2309 64.8191 97.2309 64.8191Z" fill="#9A4A4D"/>
<path d="M103.692 94.5342C104.375 95.2403 104.814 96.1465 104.945 97.1202C105.073 98.6088 104.897 102.679 105.013 103.23C104.645 103.428 104.234 103.534 103.816 103.537L103.584 101.901C103.484 101.566 103.52 101.299 103.161 101.901C102.802 102.504 102.503 103.21 101.944 104.112C101.497 104.826 100.815 106.295 98.8272 106.878C96.9755 107.424 95.443 107.241 94.569 106.802C94.0462 106.542 93.276 105.832 93.9465 104.842C94.3016 104.316 95.6066 102.683 96.2851 101.745C96.9635 100.808 103.692 94.5342 103.692 94.5342Z" fill="#263238"/>
<path d="M98.6476 94.4863C98.7434 90.5913 95.0799 72.7925 96.0656 64.4319L106.517 64.3042C105.953 66.7323 105.591 69.2031 105.436 71.6911C105.264 73.9658 105.995 79.1698 104.933 84.7968C104.394 87.4223 103.994 90.0746 103.736 92.7424C103.736 93.345 103.672 94.622 103.7 94.9532C103.868 96.8768 103.576 97.9703 101.465 101.019C101.066 101.606 100.076 103.509 97.2429 103.881C95.8501 104.06 95.2834 103.414 95.8341 102.48C96.736 100.983 98.5558 98.3773 98.6476 94.4863Z" fill="#B16668"/>
<path d="M105.436 71.6914C105.416 72.5774 105.468 73.4553 105.516 74.3373C105.564 75.2192 105.596 76.1052 105.624 76.9871C105.67 78.76 105.606 80.5339 105.432 82.2989C105.34 83.1808 105.197 84.0548 105.033 84.9248L104.554 87.5188C104.397 88.3861 104.251 89.2547 104.115 90.1247C103.975 90.9947 103.836 91.8647 103.752 92.7427C103.86 90.9788 104.059 89.2218 104.351 87.4789C104.606 85.7309 105.005 84.0149 105.149 82.2629C105.252 81.3929 105.304 80.511 105.352 79.633C105.4 78.7551 105.392 77.8731 105.4 76.9911C105.408 76.1092 105.4 75.2272 105.368 74.3453C105.336 73.4633 105.352 72.5734 105.436 71.6914Z" fill="#9A4A4D"/>
<path d="M95.914 69.0851C95.8541 67.5324 95.9048 65.9774 96.0656 64.4319L106.517 64.3042C106.231 65.4633 106.007 66.6369 105.847 67.8201C105.847 67.8201 101.832 69.8434 95.914 69.0851Z" fill="#9A4A4D"/>
<path d="M88.1998 47.4272C88.4365 45.0258 88.8149 42.6405 89.3332 40.2837C89.7322 38.4799 90.1313 36.9155 90.4147 35.5347C93.4516 37.558 101.002 37.7416 104.478 35.4629C105.919 37.4697 107.15 39.6186 108.154 41.876C109.351 44.7015 109.842 46.4654 109.786 49.9733C109.734 53.1659 108.301 62.616 106.992 66.6467C103.46 68.6062 91.0771 68.1552 87.5732 64.6513C87.5772 64.6473 87.7808 50.7515 88.1998 47.4272Z" fill="#455A64"/>
<path d="M91.4721 3.87994C91.4092 3.47626 91.4793 3.06307 91.6717 2.70267C92.1107 1.90451 93.0804 1.52938 93.9903 1.4376C94.4886 1.43943 94.9827 1.34736 95.4469 1.16622C95.854 0.966685 96.1334 0.56761 96.5324 0.312201C96.9942 0.0409798 97.5371 -0.0579856 98.0649 0.0328472C98.6939 0.109454 99.283 0.381659 99.749 0.811046C100.097 1.16565 100.528 1.42884 101.002 1.57727C102.139 1.90451 102.954 1.49746 104.019 2.42331C104.338 2.72902 104.583 3.10385 104.734 3.51895C104.886 3.93406 104.94 4.3784 104.893 4.81777C105.691 5.25276 106.837 8.01038 105.412 11.203C104.682 12.8312 103.748 13.5974 102.598 14.9902L101.429 15.0461C100.998 14.0723 100.012 14.3038 99.0905 14.1202C98.5238 13.8968 98.1966 13.3221 97.6578 13.0707C97.1472 12.8824 96.6057 12.7917 96.0615 12.8033C95.4467 12.8175 94.8418 12.6465 94.3255 12.3124C93.9872 11.981 93.7386 11.569 93.6032 11.1152C93.4835 10.8318 93.268 9.88205 93.6032 9.64659C93.0804 10.0457 92.0428 10.2532 91.4841 9.84214C91.3124 9.71233 91.1805 9.53688 91.1036 9.3358C91.0267 9.13471 91.0078 8.91607 91.0491 8.70477C91.0757 8.62211 91.0904 8.53614 91.093 8.44936C91.082 8.36168 91.0501 8.2779 91.0001 8.20502C90.9502 8.13213 90.8835 8.07224 90.8057 8.03033C90.654 7.93456 90.4864 7.87868 90.3388 7.77891C90.1351 7.61208 89.9877 7.38673 89.9163 7.13335C89.8449 6.87997 89.8531 6.61078 89.9397 6.3622C90.1275 5.87022 90.4672 5.45087 90.9094 5.16497C91.1808 4.96942 91.5001 4.76589 91.552 4.43067C91.5578 4.24383 91.5308 4.05743 91.4721 3.87994Z" fill="#263238"/>
<path d="M95.9296 18.7537L96.5362 18.6499C97.055 18.5621 96.9832 17.9715 97.0071 17.4527V16.6545C96.5422 16.718 96.0693 16.6886 95.6158 16.568C95.1623 16.4474 94.7373 16.2381 94.3652 15.9521C93.2478 15.0622 92.5854 13.2185 92.5973 11.2071C92.5973 9.87022 92.9246 9.21174 92.8926 8.93239C92.6971 7.14852 92.8208 6.82527 93.1959 5.88345C93.8784 4.37893 95.7381 3.75637 96.624 5.3008C98.8708 3.37725 101.553 5.64799 101.581 8.4096C101.369 10.7003 102.071 10.7801 102.518 10.7761C103.109 9.32747 104.578 9.28358 105.236 10.1695C105.835 10.9677 105.879 12.2527 104.837 13.4659C103.795 14.6791 102.634 13.9727 102.61 13.7413C102.61 13.7413 102.574 16.8181 102.578 17.4287C102.582 18.0393 102.666 18.3985 103.436 18.6259L104.546 18.9372C104.546 18.9372 104.49 19.017 104.374 19.1527C104.115 19.488 103.544 20.2183 102.582 21.4674C100.037 22.5254 97.578 23.7796 95.2272 25.2187C94.6945 23.9321 94.2414 22.614 93.8704 21.2718C94.4609 20.3584 95.1516 19.5138 95.9296 18.7537Z" fill="#B16668"/>
<path d="M98.2844 12.7314L96.5684 13.2742C96.5986 13.3893 96.6518 13.4971 96.7248 13.5911C96.7978 13.6851 96.889 13.7633 96.9931 13.8211C97.0971 13.8789 97.2117 13.915 97.3301 13.9273C97.4485 13.9397 97.5681 13.9279 97.6818 13.8928C97.9125 13.8141 98.104 13.6495 98.2163 13.4331C98.3286 13.2167 98.353 12.9654 98.2844 12.7314Z" fill="#9A4A4D"/>
<path d="M98.1728 13.1268C97.9443 13.1211 97.7208 13.1947 97.5404 13.3351C97.36 13.4755 97.2337 13.6741 97.1831 13.897C97.3456 13.9469 97.5194 13.9469 97.682 13.897C97.845 13.8423 97.9897 13.7437 98.1003 13.6121C98.2108 13.4804 98.2829 13.3207 98.3085 13.1507L98.1728 13.1268Z" fill="#F28F8F"/>
<path d="M93.4315 7.98612L94.7524 7.56709C94.7291 7.47999 94.6884 7.39852 94.6327 7.32761C94.5771 7.2567 94.5076 7.19783 94.4285 7.15455C94.3494 7.11128 94.2623 7.0845 94.1726 7.07584C94.0829 7.06718 93.9923 7.07681 93.9064 7.10417C93.7292 7.16211 93.581 7.286 93.4926 7.45018C93.4042 7.61436 93.3823 7.80626 93.4315 7.98612Z" fill="#263238"/>
<path d="M99.7532 8.32155L98.4482 7.81473C98.4788 7.72978 98.5261 7.65184 98.5874 7.58552C98.6486 7.5192 98.7226 7.46585 98.8048 7.42863C98.8871 7.39141 98.9759 7.37109 99.0662 7.36886C99.1564 7.36663 99.2462 7.38254 99.3302 7.41565C99.5021 7.48532 99.6412 7.61745 99.7197 7.78549C99.7982 7.95353 99.8102 8.14504 99.7532 8.32155Z" fill="#263238"/>
<path d="M95.0159 9.2953C95.0249 9.44541 94.9756 9.59318 94.8781 9.70773C94.7807 9.82227 94.6427 9.8947 94.4931 9.90988C94.4203 9.91814 94.3466 9.91169 94.2764 9.89091C94.2061 9.87013 94.1408 9.83545 94.0842 9.78892C94.0276 9.74238 93.981 9.68496 93.947 9.62004C93.9131 9.55513 93.8925 9.48405 93.8865 9.41104C93.8765 9.26069 93.9255 9.11237 94.0232 8.9976C94.1208 8.88283 94.2593 8.81067 94.4093 8.79646C94.4821 8.78819 94.5558 8.79464 94.6261 8.81542C94.6963 8.8362 94.7617 8.87089 94.8183 8.91742C94.8748 8.96395 94.9215 9.02138 94.9555 9.0863C94.9894 9.15121 95.01 9.22229 95.0159 9.2953Z" fill="#263238"/>
<path d="M99.1186 9.54304C99.1278 9.69612 99.0778 9.84687 98.9791 9.9642C98.8803 10.0815 98.7403 10.1565 98.5879 10.1736C98.5132 10.1818 98.4376 10.1749 98.3657 10.1533C98.2937 10.1317 98.2269 10.0957 98.1691 10.0477C98.1114 9.99962 98.0639 9.94041 98.0296 9.87359C97.9953 9.80676 97.9748 9.7337 97.9693 9.65877C97.9602 9.50612 98.0103 9.35584 98.1092 9.23916C98.208 9.12248 98.348 9.04837 98.5001 9.03222C98.5744 9.02396 98.6497 9.03073 98.7214 9.05212C98.7931 9.0735 98.8598 9.10907 98.9175 9.15672C98.9752 9.20436 99.0227 9.2631 99.0573 9.32946C99.0918 9.39583 99.1127 9.46845 99.1186 9.54304Z" fill="#263238"/>
<path d="M97.0192 16.6583C99.2141 16.4428 101.321 15.8602 101.86 14.5073C101.832 14.9015 101.702 15.2815 101.481 15.6093C101.261 15.9371 100.958 16.2011 100.603 16.375C99.4959 16.9642 98.2651 17.2828 97.0112 17.3048L97.0192 16.6583Z" fill="#9A4A4D"/>
<path d="M94.7368 11.1788L96.7561 11.9251L97.0195 8.12988L94.7368 11.1788Z" fill="#9A4A4D"/>
<path d="M87.5013 26.1084C85.1268 32.785 84.0334 35.5785 84.0334 35.5785C84.0334 35.5785 76.427 42.3907 75.1739 43.2927C73.9208 44.1946 71.5822 45.6073 71.5822 45.6073C70.1575 46.593 69.6507 47.2036 69.2875 48.1215C68.9243 49.0394 69.4791 50.6915 70.0857 51.4139C70.6923 52.1362 71.2111 52.655 71.9853 52.7468C72.4855 52.8096 72.9922 52.8001 73.4898 52.7188C73.6694 52.631 73.833 52.5033 74.0206 52.4315C74.2081 52.3597 74.5074 52.3397 74.7269 52.232C75.0821 52.0604 75.2657 51.6573 75.5889 51.4338C75.7486 51.3261 75.9321 51.2662 76.0878 51.1584C76.2166 51.0701 76.331 50.9624 76.427 50.8392C76.5177 50.7429 76.5882 50.6293 76.6341 50.5052C76.6801 50.3811 76.7006 50.249 76.6944 50.1169C76.6704 50.0082 76.6315 49.9035 76.5786 49.8056L76.3751 49.3746C76.3553 49.085 76.422 48.7961 76.5667 48.5445C76.8101 48.2292 77.6362 47.2036 77.6362 47.2036L77.704 47.1557C78.1949 46.7566 78.5501 46.3576 78.9252 46.0383C79.5604 45.5226 80.2357 45.0582 80.9445 44.6495C84.7038 42.3708 87.0264 40.6308 88.4471 39.7529C89.8679 38.8749 90.0714 38.0089 91.121 36.2091C92.9048 33.1481 94.8803 28.6266 94.8803 28.6266L95.0359 18.3823C90.69 18.6577 89.0537 21.7386 87.5013 26.1084Z" fill="#B16668"/>
<path d="M79.6878 39.3379L77.9438 40.7905C78.7065 41.2302 79.3567 41.8409 79.8434 42.5744C80.2994 43.2854 80.6038 44.0829 80.7374 44.917L82.6769 43.7198C82.6769 43.7198 82.6769 42.6702 81.6952 41.1976C81.1773 40.4321 80.4905 39.7959 79.6878 39.3379Z" fill="#FF9900"/>
<path opacity="0.7" d="M79.6878 39.3379L77.9438 40.7905C78.7065 41.2302 79.3567 41.8409 79.8434 42.5744C80.2994 43.2854 80.6038 44.0829 80.7374 44.917L82.6769 43.7198C82.6769 43.7198 82.6769 42.6702 81.6952 41.1976C81.1773 40.4321 80.4905 39.7959 79.6878 39.3379Z" fill="white"/>
<path d="M95.016 18.2505C92.5298 18.5857 90.698 19.1045 89.2134 21.9699C87.7289 24.8352 84.0015 35.2272 84.0015 35.2272L78.8574 39.8884C79.6458 40.332 80.3196 40.9538 80.8249 41.7042C81.3422 42.5156 81.6834 43.4265 81.8265 44.378C81.8265 44.378 86.831 41.1335 88.4871 40.0959C90.1433 39.0583 90.6461 37.9928 92.3302 34.9518C94.0143 31.9109 95.3034 29.4645 95.3034 29.4645L95.016 18.2505Z" fill="#263238"/>
<path d="M96.5048 18.6587C96.5048 18.6587 95.5271 20.694 96.1936 21.9231C99.482 21.548 102.26 20.0195 103.377 18.9899L106.143 19.4249C106.143 19.4249 107.95 22.8769 107.388 25.8101C106.825 28.7433 104.474 35.4598 104.474 35.4598C101.346 40.0053 90.6943 37.6028 90.411 35.5316C90.411 35.5316 90.0957 32.9536 89.8323 30.8305C89.8323 30.8305 88.3398 29.3978 88.2679 27.4823C88.1881 25.4869 89.0182 24.0622 91.0615 21.987C92.2306 20.772 93.5195 19.6783 94.9085 18.7225L96.5048 18.6587Z" fill="#FF9900"/>
<path opacity="0.7" d="M96.5048 18.6587C96.5048 18.6587 95.5271 20.694 96.1936 21.9231C99.482 21.548 102.26 20.0195 103.377 18.9899L106.143 19.4249C106.143 19.4249 107.95 22.8769 107.388 25.8101C106.825 28.7433 104.474 35.4598 104.474 35.4598C101.346 40.0053 90.6943 37.6028 90.411 35.5316C90.411 35.5316 90.0957 32.9536 89.8323 30.8305C89.8323 30.8305 88.3398 29.3978 88.2679 27.4823C88.1881 25.4869 89.0182 24.0622 91.0615 21.987C92.2306 20.772 93.5195 19.6783 94.9085 18.7225L96.5048 18.6587Z" fill="white"/>
<path opacity="0.3" d="M102.455 30.415C102.18 31.1823 101.69 31.854 101.043 32.3495C100.396 32.8451 99.6199 33.1433 98.8076 33.2086C98.0269 33.2982 97.2364 33.1801 96.516 32.8662C95.7956 32.5522 95.1709 32.0536 94.7051 31.4207C94.7051 31.4207 95.2797 34.4856 98.9193 33.9469C102.559 33.4081 102.455 30.415 102.455 30.415Z" fill="#FF9900"/>
<path d="M102.631 17.8164C102.631 17.8164 99.917 24.1338 99.0031 27.1827C98.0892 30.2317 98.5641 32.666 98.9073 38.1853C99.1747 42.4314 99.6376 48.8406 99.6376 48.8406C99.6376 48.8406 107.695 48.7248 110.169 45.1332C109.511 43.0221 107.444 38.0975 106.913 36.7526C106.382 35.4077 106.641 34.2144 107.499 31.1017C108.357 27.9889 109.746 26.2808 109.706 23.9742C109.662 23.1021 109.442 22.248 109.058 21.4638C108.673 20.6797 108.134 19.9818 107.471 19.4127L102.631 17.8164Z" fill="#37474F"/>
<path d="M96.9319 18.3352C96.905 18.4117 96.8602 18.4806 96.8011 18.5361C96.7421 18.5917 96.6706 18.6323 96.5927 18.6545C96.5927 18.6545 91.1253 23.9103 90.7462 29.3537C90.3671 34.7971 90.0239 46.7215 90.0239 46.7215C90.0239 46.7215 89.4292 46.4461 88.2719 45.185C88.5194 42.7108 89.3734 32.9454 89.1419 31.828C88.9105 30.7106 86.2446 28.1605 88.687 24.5249C91.1293 20.8893 95.0163 18.2514 95.0163 18.2514L97.0117 17.8164C97.0207 17.993 96.9936 18.1695 96.9319 18.3352Z" fill="#37474F"/>
<path d="M94.2342 19.6644C93.887 19.9796 93.5398 20.2949 93.2085 20.6222C92.5381 21.2727 91.8716 21.9271 91.2132 22.6175C90.8939 22.9607 90.5746 23.3039 90.2673 23.6551C90.1117 23.8307 89.9601 24.0103 89.8124 24.1979C89.636 24.3834 89.5001 24.6036 89.4133 24.8444C89.3534 25.0898 89.3385 25.344 89.3694 25.5946C89.3938 25.8349 89.4392 26.0726 89.5051 26.305C89.6218 26.7361 89.7712 27.1577 89.9521 27.5661C89.5686 28.0182 89.2576 28.5271 89.0302 29.0746C89.0009 29.1543 88.9821 29.2375 88.9743 29.322C88.9662 29.4056 88.9662 29.4898 88.9743 29.5734C88.9743 29.7291 89.0142 29.8807 89.0382 30.0324C89.0901 30.3317 89.1499 30.631 89.2138 30.9263C89.4692 32.1235 89.7725 33.2848 90.1037 34.4541C89.8683 33.2569 89.6328 32.0597 89.4173 30.8904C89.3654 30.5911 89.3175 30.2958 89.2776 29.9965C89.2776 29.8488 89.2377 29.7011 89.2337 29.5575C89.2166 29.4225 89.233 29.2854 89.2816 29.1584C89.5197 28.6196 89.8387 28.1204 90.2274 27.6778L90.2833 27.606L90.2474 27.5222C90.0646 27.1022 89.9152 26.6686 89.8004 26.2252C89.7432 26.0078 89.7032 25.7863 89.6807 25.5627C89.6637 25.3436 89.6867 25.1231 89.7485 24.9122C89.8214 24.7127 89.931 24.5286 90.0718 24.3695C90.2155 24.1859 90.3631 24.0103 90.5148 23.8347C90.8141 23.4795 91.1293 23.1363 91.4406 22.7931C92.0672 22.1027 92.7017 21.4163 93.3482 20.7459C93.9947 20.0754 94.6332 19.393 95.3196 18.7505C94.9365 19.0418 94.5813 19.3531 94.2342 19.6644Z" fill="#263238"/>
<path d="M103.836 26.907V24.6681C103.816 22.6728 103.792 20.7133 103.724 18.7339C103.64 20.7293 103.6 22.6927 103.564 24.6761V26.1607V26.903V27.0866C103.573 27.1327 103.573 27.18 103.564 27.2262C103.531 27.3229 103.48 27.4123 103.413 27.4896C103.076 27.8204 102.676 28.0785 102.235 28.2479C101.79 28.4419 101.331 28.6033 100.863 28.7307L100.699 28.7746L100.759 28.9263C101.001 29.5246 101.209 30.1362 101.381 30.7581C101.421 30.9137 101.457 31.0693 101.481 31.225C101.515 31.3647 101.522 31.5097 101.501 31.652V31.6919L101.473 31.7478L101.094 32.514C100.807 33.0966 100.511 33.6753 100.232 34.2659L99.3262 36.0259L100.284 34.3218C100.603 33.7551 100.911 33.1804 101.222 32.6058L101.453 32.1788L101.569 31.9633L101.657 31.7996L101.681 31.7238C101.716 31.546 101.716 31.3629 101.681 31.1851C101.659 31.0196 101.627 30.8556 101.585 30.6942C101.431 30.1101 101.246 29.5346 101.03 28.9702C101.463 28.8522 101.889 28.7069 102.303 28.5352C102.791 28.3535 103.23 28.0628 103.588 27.6852C103.686 27.5691 103.757 27.4328 103.796 27.2861C103.815 27.2118 103.824 27.1353 103.824 27.0586L103.836 26.907Z" fill="#263238"/>
<path d="M114.136 34.4889C114.483 37.0988 114.555 37.5418 114.387 39.2778C114.263 40.5788 114.128 40.7982 113.637 43.1688C113.146 45.5393 111.909 49.8653 111.929 50.4958C111.981 51.0973 111.981 51.7021 111.929 52.3036C111.862 53.0194 111.694 53.722 111.43 54.3908C111.25 54.8497 111.135 55.3565 110.923 55.8035C110.735 56.107 110.519 56.3916 110.277 56.6535C110.037 56.9648 109.953 57.3639 109.658 57.6432C109.147 58.1301 108.608 58.202 108.122 58.4414C107.91 58.7487 107.559 59.4032 107.323 59.6945C106.721 60.4328 106.585 59.2236 106.605 58.8125C106.642 58.3714 106.725 57.9354 106.852 57.5116C107.16 56.4459 107.407 55.3641 107.595 54.2711C107.627 54.0755 107.862 53.2734 107.543 53.2774C107.491 53.2847 107.441 53.3022 107.396 53.3289C107.35 53.3556 107.311 53.391 107.279 53.433C107.06 53.6804 106.916 53.9877 106.721 54.2551C106.564 54.4621 106.392 54.6569 106.206 54.8377C106.06 55.0023 105.884 55.1376 105.687 55.2368C105.48 55.3246 104.721 55.3845 104.689 55.0293C104.689 54.9711 104.703 54.9136 104.729 54.8617C104.885 54.4985 105.073 54.1433 105.232 53.7802C105.399 53.4163 105.546 53.0432 105.671 52.6628C105.919 51.5328 106.38 50.4602 107.028 49.5021C108.313 47.7302 108.58 37.2704 108.58 37.2704L106.856 30.0631C106.133 28.1252 105.795 26.0646 105.863 23.9971C105.974 20.5731 107.256 19.6592 107.256 19.6592C109.909 20.7247 111.354 21.5588 112.044 24.0011C112.735 26.4435 113.9 32.7329 114.136 34.4889Z" fill="#B16668"/>
<path d="M108.106 43.9352L107.906 45.9865C107.906 45.9865 108.804 45.7391 110.668 46.2619C112.14 46.6809 112.663 47.4072 112.663 47.4072L113.146 45.4118C113.146 45.4118 111.586 43.7437 108.106 43.9352Z" fill="#FF9900"/>
<path opacity="0.7" d="M108.106 43.9352L107.906 45.9865C107.906 45.9865 108.804 45.7391 110.668 46.2619C112.14 46.6809 112.663 47.4072 112.663 47.4072L113.146 45.4118C113.146 45.4118 111.586 43.7437 108.106 43.9352Z" fill="white"/>
<path d="M114.491 36.3529C114.415 35.7343 114.028 32.4898 113.066 27.7448C112.156 23.2353 111.937 22.7324 111.154 21.6948C110.496 20.8248 109.814 20.1783 107.491 19.4121C107.491 19.4121 105.599 20.5415 105.555 23.5146C105.511 26.3481 106.729 30.2989 106.729 30.2989L108.369 37.606L107.97 44.8811C109.235 44.4382 112.324 45.1445 112.982 46.3976C112.982 46.3976 113.78 43.4125 114.271 41.1019C114.611 39.5426 114.686 37.9369 114.491 36.3529Z" fill="#263238"/>
<path d="M33.5778 62.9182L36.0002 53.935C37.1176 49.3217 35.665 43.4912 35.665 43.4912C33.5938 43.7346 31.758 44.6884 30.7524 47.3024C29.7467 49.9163 28.2821 58.8756 27.9309 60.8271C27.6156 62.511 27.5483 64.2319 27.7314 65.9353C27.9109 68.1102 29.0044 72.0132 29.4394 74.1442C29.6389 75.13 29.7627 76.0838 29.8944 77.0894C30.1003 78.1224 30.3777 79.1398 30.7244 80.1344C30.8725 80.6165 31.1483 81.0495 31.5226 81.3875C31.7541 81.607 32.0813 81.6469 32.3207 81.8544C32.5602 82.0619 32.5801 82.4011 32.8954 82.5767C33.2107 82.7523 33.6536 82.6765 33.9569 82.876C34.2542 83.1196 34.5661 83.3449 34.8908 83.5505C35.1944 83.6514 35.4685 83.8255 35.6889 84.0573C35.8805 84.2888 36.0561 84.7996 36.4232 84.7796C36.7904 84.7597 36.9221 84.3805 36.958 84.0214C36.976 83.349 36.7773 82.6886 36.3913 82.1377C36.0583 81.5296 35.6891 80.9419 35.2859 80.3778C34.8883 79.8527 34.6153 79.2441 34.4877 78.5979C34.38 78.1709 34.4438 77.6282 34.9786 77.8996C35.6131 78.2228 36.2676 78.8733 37.0458 78.7735C37.5885 78.7097 37.6364 78.2867 37.3411 77.9195C36.8535 77.3149 36.412 76.6746 36.0202 76.0039C35.6211 75.3215 35.2939 74.5992 34.8748 73.9287C34.647 73.58 34.3964 73.2467 34.1246 72.9311C33.3863 72.0371 33.4701 70.8718 33.4302 69.7863C33.3504 68.2659 33.51 64.8617 33.5778 62.9182Z" fill="#FFA8A7"/>
<path d="M28.3101 69.8425L28.7889 72.0335C28.7889 72.0335 29.623 72.5523 31.355 72.3128C33.087 72.0734 33.6257 71.5147 33.6257 71.5147L33.526 69.208L28.3101 69.8425Z" fill="#F0F0F0"/>
<path d="M35.0306 42.3062C32.0216 42.6733 30.964 44.541 30.0501 47.5979C29.1083 50.7346 28.0946 57.8621 27.8392 59.3467C27.4465 61.1423 27.2975 62.9826 27.3963 64.818C27.61 66.7576 27.9365 68.6831 28.374 70.5847C28.374 70.5847 29.1721 71.0317 30.8602 70.9478C33.2068 70.8281 33.6538 70.1018 33.6538 70.1018L33.8054 62.9583L37.1537 51.7603L35.0306 42.3062Z" fill="#455A64"/>
<path d="M70.4405 118.981C70.66 118.881 70.8396 119.46 70.7877 119.779C70.632 120.717 69.774 121.958 68.2496 122.896C66.7251 123.834 63.3689 124.472 62.3831 124.764C61.3974 125.055 59.8769 126.145 58.9591 126.639C57.2829 127.537 55.9141 127.438 55.1519 127.038C55.0169 126.947 54.902 126.829 54.8141 126.692C54.7263 126.555 54.6674 126.401 54.6411 126.24C54.4415 125.53 54.4575 125.366 54.5333 125.346L70.4405 118.981Z" fill="#263238"/>
<path d="M54.0901 123.231C54.1788 124.122 54.391 124.997 54.7206 125.829C54.911 126.027 55.1429 126.18 55.3997 126.277C55.6564 126.375 55.9315 126.414 56.2052 126.392C57.4782 126.392 58.5996 125.925 59.7729 125.195C60.5199 124.699 61.3326 124.311 62.1873 124.041C63.2129 123.758 65.5036 123.243 66.5173 122.912C67.4691 122.604 68.345 122.098 69.0873 121.427C69.654 120.877 70.4442 119.811 70.5001 119.193C70.3285 117.852 69.9733 117.137 69.1472 116.942C68.3211 116.746 67.1917 117.006 65.7072 117.385C65.2602 117.497 64.7015 117.656 64.462 117.708C63.5521 117.904 62.7101 118.107 62.0277 118.299C61.4644 118.495 60.863 118.557 60.2717 118.478C59.9988 118.445 59.7468 118.314 59.5614 118.111C59.3219 117.832 59.1623 117.357 58.8989 117.421C58.8989 117.421 54.2018 119.999 53.8107 120.178C53.4196 120.358 53.8825 120.992 54.0901 123.231Z" fill="#37474F"/>
<path d="M64.8335 117.54C65.0246 117.614 65.1974 117.728 65.3403 117.875C65.4945 118.034 65.6286 118.211 65.7394 118.402C65.8871 118.645 65.5917 118.801 65.3722 118.542C65.2048 118.317 65.0105 118.113 64.7936 117.935C64.6436 117.815 64.4551 117.752 64.2628 117.76L64.0034 117.819C64.0274 117.596 64.606 117.472 64.8335 117.54Z" fill="#FAFAFA"/>
<path d="M62.5027 118.027C62.5834 117.989 62.6712 117.97 62.7601 117.97C62.849 117.97 62.9369 117.989 63.0175 118.027C63.2283 118.119 63.4092 118.268 63.5403 118.458C63.7062 118.687 63.8542 118.928 63.9833 119.18C64.0551 119.344 63.668 119.467 63.5842 119.296C63.4634 119.072 63.3302 118.854 63.1851 118.645C63.1053 118.541 62.7661 118.158 62.4868 118.202L62.367 118.234C62.3471 118.178 62.4109 118.11 62.4588 118.079L62.5027 118.027Z" fill="#FAFAFA"/>
<path d="M61.1779 118.434C61.2983 118.418 61.4204 118.446 61.5212 118.514C61.6504 118.61 61.7635 118.726 61.8564 118.857C62.0206 119.103 62.147 119.372 62.2315 119.655C62.3033 119.871 61.9043 119.943 61.8324 119.799C61.7283 119.413 61.5247 119.06 61.2418 118.777C61.1182 118.657 60.9656 118.57 60.7988 118.526C60.7988 118.482 60.8507 118.458 60.8906 118.45C60.9305 118.442 61.1141 118.434 61.1779 118.434Z" fill="#FAFAFA"/>
<path d="M51.9512 114.703C51.9512 114.703 53.4278 119.408 53.8787 120.481C54.0224 120.824 54.7008 120.749 55.0759 120.789C55.5367 120.811 55.9902 120.912 56.4168 121.088C57.5223 121.678 58.2127 121.666 58.2486 119.97C58.2413 119.893 58.2504 119.815 58.2753 119.741C58.3001 119.668 58.3402 119.6 58.3929 119.543C58.4455 119.485 58.5097 119.44 58.5811 119.409C58.6525 119.378 58.7295 119.363 58.8073 119.364C59.1158 119.369 59.4222 119.313 59.7092 119.2C59.7451 119.152 59.7092 119.092 59.6533 119.057C59.4699 118.93 59.3152 118.766 59.199 118.575C59.0828 118.385 59.0079 118.172 58.9789 117.951C58.52 115.956 58.2805 114.204 57.7817 111.729L51.9512 114.703Z" fill="#FFA8A7"/>
<path d="M48.3993 68.1626C48.3993 68.1626 50.6541 71.0001 52.0149 76.3078C53.2436 81.2455 54.1764 86.2522 54.8085 91.3011C55.1357 93.5598 55.3751 95.1721 55.9578 99.2826C56.4606 102.731 58.6196 115.461 58.6196 115.461C58.6196 115.461 57.0473 116.89 55.7263 117.417C54.4972 117.903 53.3558 118.099 52.9049 117.903C52.9049 117.903 51.3884 113.813 49.5127 108.457C48.607 105.987 47.8854 103.452 47.3537 100.875C47.1103 99.55 47.1701 97.1954 47.1941 96.0062L37.1134 79.6441C36.2958 78.6229 35.66 77.4687 35.2338 76.232C33.9088 72.736 35.6009 67.6997 35.6009 67.6997L48.3993 68.1626Z" fill="#263238"/>
<path d="M38.4824 72.7559H50.8537C51.3158 73.9135 51.7024 75.0999 52.0111 76.3076C53.1575 80.8541 54.0396 85.4632 54.6529 90.1117C54.3496 92.2427 54.0104 94.4257 53.6952 95.9302C52.8611 99.897 52.3423 102.715 51.6998 104.339C51.0627 105.727 50.3069 107.059 49.441 108.318C48.5585 105.903 47.8543 103.428 47.3339 100.911C47.0905 99.5857 47.1503 97.2312 47.1743 96.0419L39.8632 84.1415L39.2925 80.462C37.4168 77.2574 37.6244 74.855 38.4824 72.7559Z" fill="black"/>
<path d="M32.6797 121.344C33.3861 120.146 34.0246 118.303 35.585 113.646L41.3955 118.434L37.8038 124.441C37.6907 124.751 37.6027 125.07 37.5404 125.394C36.7702 126.552 32.6797 121.344 32.6797 121.344Z" fill="#FFA8A7"/>
<path d="M30.5409 123.881C30.5409 123.814 30.517 123.251 30.5409 123.183C30.6926 122.58 31.0477 122.413 31.5027 122.074C31.9651 121.747 32.3882 121.368 32.7638 120.944C32.9154 120.721 32.9434 120.605 33.1828 120.505C33.4913 120.405 33.8186 120.375 34.14 120.419C34.4615 120.464 34.7687 120.58 35.0385 120.761C36.3475 121.483 36.7465 122.357 36.6747 123.299C36.6149 124.021 36.559 124.979 37.1616 125.406C37.413 125.585 37.8121 124.432 37.8121 124.432C38.1832 125.091 37.6604 126 37.3891 127.329C37.2301 128.065 37.2166 128.824 37.3492 129.564C37.4848 130.73 37.6365 130.726 38.2271 130.809C38.7339 130.877 40.1746 130.777 41.0526 131.42C41.391 131.636 41.6565 131.948 41.8145 132.317C41.9726 132.686 42.0158 133.093 41.9385 133.487C41.7789 133.934 40.4659 136.109 35.669 135.299C34.2763 135.064 31.351 132.761 31.3949 132.549C31.4209 132.329 31.4209 132.107 31.3949 131.887C31.3949 131.372 31.359 130.857 31.3391 130.338C31.3552 129.846 31.3271 129.353 31.2553 128.866C31.167 128.465 31.107 128.058 31.0757 127.649L30.8003 124.544C30.7564 124.245 30.505 124.177 30.5409 123.881Z" fill="#37474F"/>
<path d="M29.9384 123.678C29.4635 124.157 29.7549 125.554 30.3894 127.23C30.6687 127.976 31.1875 129.253 31.0399 130.614C30.8922 131.975 30.8603 132.609 31.1915 133.256C31.7143 134.253 34.5039 135.531 36.1481 135.93C35.1479 134.45 34.5699 132.725 34.4759 130.941C34.3123 127.936 34.0769 126.001 32.7878 124.668C31.1357 122.984 29.9384 123.678 29.9384 123.678Z" fill="black"/>
<path d="M41.9302 133.488C41.9302 133.488 40.9645 135.379 37.2531 135.319C35.7924 135.295 35.0102 134.545 34.9743 132.211C34.9304 129.397 34.7149 126.556 33.8489 125.159C32.9829 123.762 31.6021 123.084 30.5326 123.183C30.2788 123.267 30.0663 123.444 29.938 123.678C29.938 123.678 31.0075 123.307 32.6757 124.76C33.9048 125.833 34.236 128.072 34.2201 130.858C34.2201 132.055 34.1403 133.412 34.4755 134.322C34.622 134.715 34.8587 135.068 35.1664 135.352C35.4741 135.637 35.8444 135.846 36.2474 135.962C38.2667 136.556 41.0363 135.563 41.7267 134.681C41.8447 134.508 41.9239 134.312 41.9591 134.106C41.9942 133.901 41.9844 133.689 41.9302 133.488Z" fill="#263238"/>
<path d="M37.469 130.299C37.6205 130.413 37.7266 130.577 37.7683 130.762C37.7869 130.999 37.7428 131.236 37.6406 131.45C37.5383 131.665 37.3814 131.848 37.1856 131.983C36.9621 132.131 36.7865 132.079 37.1218 131.584C37.3498 131.194 37.4696 130.75 37.469 130.299Z" fill="#FAFAFA"/>
<path d="M37.2694 128.842C37.2694 128.842 37.3852 128.922 37.4171 129.313C37.4171 129.52 37.1218 130.366 36.7307 130.566C36.3396 130.765 36.5511 130.294 36.7307 130.063C36.9943 129.698 37.1779 129.282 37.2694 128.842Z" fill="#FAFAFA"/>
<path d="M37.4008 127.229C37.4008 127.229 37.5285 127.269 37.4008 127.808C37.2251 128.139 36.9442 128.401 36.6026 128.554C36.3512 128.586 36.2275 128.451 36.5388 128.215C36.7623 128.032 37.3529 127.493 37.4008 127.229Z" fill="#FAFAFA"/>
<path d="M40.5816 68.1625C39.9909 68.797 38.5263 70.9201 38.2909 74.1885C38.1957 76.3215 38.8337 78.4227 40.0987 80.1427C40.5696 87.386 40.5616 101.07 40.5616 101.07C38.9242 103.407 37.7087 106.012 36.9699 108.768C36.3194 110.911 33.917 118.294 33.917 118.294C37.8519 117.74 39.2207 122.321 39.2207 122.321C39.2207 122.321 43.3272 115.824 46.6555 110.748C49.0978 107.02 50.738 104.243 51.4723 102.044C52.1468 100.025 52.6337 97.5784 53.2921 92.8653C53.9506 88.1522 54.5931 81.9386 54.9164 77.3013C55.2396 72.664 55.0521 65.9556 55.0521 65.9556L40.5816 68.1625Z" fill="#263238"/>
<path d="M34.7354 73.8451C35.2668 73.6565 35.7287 73.3115 36.0603 72.8554C36.2189 72.5303 36.333 72.1854 36.3995 71.8298C36.5381 71.2356 36.725 70.6537 36.9582 70.0898L37.2974 70.2495C37.074 70.7941 36.8952 71.356 36.7627 71.9296C36.6834 72.3242 36.5491 72.7057 36.3636 73.063C35.9767 73.6206 35.415 74.0335 34.7673 74.2362C34.7553 74.1045 34.7433 73.9728 34.7354 73.8451Z" fill="black"/>
<path d="M43.5907 77.9879C43.5115 77.9895 43.4325 77.9815 43.3553 77.9639C42.8125 77.8362 42.3935 77.4571 41.5514 76.3277C40.9169 75.4697 40.9808 74.8551 41.0885 73.8335C41.1284 73.4584 41.4876 71.439 41.5275 70.9282L41.8867 71.1357C41.8587 71.6785 41.4876 73.4983 41.4596 73.8774C41.3519 74.891 41.304 75.354 41.8587 76.0883C42.6329 77.1299 43.0041 77.4771 43.455 77.5808C43.906 77.6846 45.7737 77.3534 46.2805 76.9862C46.5678 76.7707 47.0587 74.1528 47.342 71.8501L47.7132 71.898C47.5695 73.0633 47.0547 76.8984 46.492 77.3095C45.9692 77.6806 44.345 78.0158 43.5907 77.9879Z" fill="black"/>
<path d="M46.0452 39.8876L45.3627 44.8761L38.5864 44.5329L39.3167 39.1294L46.0452 39.8876Z" fill="#FFA8A7"/>
<path d="M48.7432 30.5571C49.262 31.2196 50.8543 33.0194 51.1376 33.4903L49.6171 34.4122L48.7432 30.5571Z" fill="#F28F8F"/>
<path d="M44.9758 25.5406C47.0669 25.3171 48.4278 26.8017 49.0344 31.2554C49.0583 31.431 49.3177 31.7064 49.5133 32.3728C50.3513 35.2342 49.8844 37.9599 49.3975 38.6822C48.2003 39.656 46.8355 40.0191 44.884 39.8555C43.3954 39.7278 39.5962 39.2728 37.6687 37.2655C35.4059 34.887 34.2766 31.3352 35.8729 29.4835C38.1356 26.8815 43.8185 25.6643 44.9758 25.5406Z" fill="#FFA8A7"/>
<path d="M49.3974 38.6821C49.1301 39.0812 47.2145 40.0629 46.0093 40.1427L46.121 39.2049C47.2314 39.1756 48.3331 38.9998 49.3974 38.6821Z" fill="#F28F8F"/>
<path d="M45.3868 33.3505C45.3641 33.4199 45.3228 33.4817 45.2674 33.5293C45.2121 33.5769 45.1447 33.6083 45.0727 33.6202C45.0007 33.6322 44.9268 33.6241 44.859 33.597C44.7912 33.5698 44.7322 33.5246 44.6884 33.4663C44.467 33.1431 44.21 32.8459 43.9222 32.5803C43.5603 32.2795 43.0993 32.1244 42.6292 32.1453C40.8732 32.277 41.3002 34.5917 42.1622 35.3978C43.575 36.7187 44.3252 35.5774 44.3252 35.5774C44.3252 35.5774 45.3389 37.8202 43.8623 39.1291C43.8623 39.1291 41.3122 40.2306 39.3088 39.608C37.8808 38.5007 36.6258 37.1866 35.5855 35.7091C33.191 32.4167 33.4065 29.0365 34.939 28.1266C34.8512 26.9573 35.4857 25.2014 37.8841 24.1877C40.1669 23.222 41.6993 23.3178 43.3515 23.3896C45.0037 23.4614 47.035 24.2356 48.5714 22.9546C48.7592 23.4175 48.8339 23.9186 48.7895 24.4161C48.7451 24.9137 48.5828 25.3936 48.316 25.816C48.5642 25.6969 48.8495 25.6813 49.1092 25.7726C49.3689 25.8639 49.5817 26.0546 49.7008 26.3028C49.8199 26.551 49.8355 26.8364 49.7441 27.0961C49.6528 27.3558 49.4621 27.5686 49.2139 27.6876C49.3804 27.7783 49.5092 27.9253 49.5772 28.1022C49.6452 28.2792 49.648 28.4746 49.5851 28.6534C49.5182 28.8308 49.4018 28.9853 49.2497 29.0985C49.0976 29.2117 48.9162 29.2789 48.727 29.2919C48.3797 29.3114 48.0313 29.2886 47.6894 29.2241C47.2066 30.573 45.6941 31.0479 44.7762 30.988C44.8041 30.988 44.9199 31.1756 44.9358 31.1995C44.9518 31.2234 45.0356 31.3512 45.0795 31.431C45.1668 31.5915 45.2389 31.7599 45.295 31.9338C45.4086 32.2837 45.452 32.6526 45.4227 33.0193C45.4309 33.131 45.4188 33.2432 45.3868 33.3505Z" fill="#263238"/>
<path d="M35.0307 42.306C33.2708 43.2877 32.1813 46.0374 32.5644 50.0162C33.0154 54.7612 33.7616 55.7868 34.2964 59.7456C34.6026 61.7971 34.7494 63.8692 34.7354 65.9433C34.7354 67.8309 34.48 71.6461 34.48 71.6461C34.48 71.6461 36.8345 74.5633 43.3035 74.9425C51.5564 75.4293 55.216 73.434 55.216 73.434C55.216 73.434 55.2639 64.9017 55.0683 59.574C54.773 51.6723 54.753 49.3617 53.5199 46.6719C53.1208 45.8738 52.6858 44.1098 51.3409 43.7587C50.2754 43.4833 46.6518 42.6572 45.6781 42.5096C44.0818 42.9086 39.9433 42.9525 38.9177 42.0786V41.8511C37.3414 41.9349 35.0307 42.306 35.0307 42.306Z" fill="#37474F"/>
<path d="M37.5849 41.9629C38.6385 41.021 38.7822 40.8933 39.0974 40.7656L39.0336 41.2405C39.0336 41.2405 39.2451 41.8072 41.2445 42.0068C44.7204 42.3539 45.8139 41.5638 45.8139 41.5638L45.8498 41.2725C46.1853 41.2531 46.5149 41.3663 46.7677 41.5877C47.3344 41.9868 48.6034 43.1321 48.6034 43.1321L47.6975 42.9326C47.6975 42.9326 45.6702 44.7005 40.7137 43.9981C37.2657 43.4913 37.5849 41.9629 37.5849 41.9629Z" fill="#263238"/>
<path d="M78.0271 46.8592C77.8665 46.9363 77.6979 46.9952 77.5243 47.0348C76.1101 47.4605 74.6095 47.51 73.1703 47.1785C73.0652 47.1641 72.9647 47.1257 72.8768 47.0661C72.7889 47.0066 72.7159 46.9276 72.6635 46.8353C72.6269 46.7048 72.6269 46.5667 72.6635 46.4362L72.8311 45.4465C72.9174 45.0402 72.9483 44.624 72.9229 44.2094C72.9097 43.9467 72.8053 43.6969 72.6276 43.503C72.44 43.3234 72.3044 43.2716 72.0769 43.3993C71.9314 43.5689 71.8336 43.7741 71.7935 43.9939C71.5182 44.8958 71.0872 45.2789 70.5963 46.3325C70.1054 47.386 69.7543 48.0565 68.0143 49.5251C67.3997 50.0439 61.4694 54.0067 61.4694 54.0067C61.4694 54.0067 60.7591 53.1846 57.2073 48.5673C54.7849 45.4146 54.0546 44.6723 51.728 44.1775C51.728 44.1775 48.9704 47.418 50.9737 52.59C51.704 53.9788 55.8983 58.2569 57.4787 59.6257C60.0846 61.8805 61.5213 62.6946 63.393 60.9945C65.4163 59.1588 66.9847 57.2392 68.6927 55.3596C70.1653 53.7633 70.8038 53.1766 71.9851 52.7496C73.284 52.2204 74.4856 51.4786 75.5409 50.5547C75.7642 50.3767 75.9616 50.1685 76.1275 49.9361C76.2752 49.7087 76.3709 49.4492 76.5266 49.2258C76.8206 48.8838 77.1337 48.5587 77.4644 48.252C77.7678 47.9301 77.9703 47.5264 78.0471 47.0907C78.0311 47.0149 78.059 46.9111 78.0271 46.8592Z" fill="#FFA8A7"/>
<path d="M66.5737 50.4866L68.1421 49.3213C68.9734 49.5536 69.694 50.076 70.1734 50.7939C70.6495 51.5266 70.9638 52.3524 71.0953 53.2163L69.898 54.2738L66.5737 50.4866Z" fill="#F0F0F0"/>
<path d="M51.4365 43.7905C53.8031 44.2974 54.6292 44.5607 55.8264 46.0094C57.0236 47.458 61.4534 53.7076 61.4534 53.7076L67.0404 49.9922C67.8645 50.3005 68.5917 50.8225 69.1475 51.5047C69.7599 52.2781 70.1243 53.2184 70.1931 54.2024C70.1931 54.2024 66.6014 58.1932 64.4983 60.2604C62.3952 62.3276 61.4135 62.7267 59.1467 61.2262C56.8799 59.7256 51.9035 54.7093 51.9035 54.7093C51.9035 54.7093 47.6014 48.7191 51.4365 43.7905Z" fill="#455A64"/>
<path d="M71.9653 52.7378C72.256 52.6522 72.5109 52.4743 72.6916 52.231C72.9191 51.8 73.2344 51.5366 73.3342 51.0577C73.362 50.8772 73.4061 50.6996 73.4659 50.527C73.5914 50.2616 73.774 50.0272 74.0006 49.8405C74.2041 49.649 74.3638 49.4415 74.5833 49.2379C74.687 49.1462 74.8786 49.0584 75.0023 49.1821C75.0497 48.9986 75.1279 48.8245 75.2338 48.6673C75.3495 48.5076 75.6688 48.2283 75.8683 48.4119C75.9207 48.4639 75.9615 48.5265 75.988 48.5954C76.1796 48.9945 76.3671 49.3936 76.5587 49.7927C76.6115 49.8905 76.6505 49.9953 76.6744 50.1039C76.6806 50.2361 76.6602 50.3682 76.6142 50.4923C76.5683 50.6164 76.4978 50.73 76.4071 50.8263C76.3111 50.9495 76.1967 51.0572 76.0678 51.1455C75.9122 51.2533 75.7286 51.3131 75.569 51.4209C75.2457 51.6404 75.0622 52.0434 74.707 52.219C74.4875 52.3268 74.2281 52.3308 74.0006 52.4186C73.7731 52.5064 73.6494 52.6181 73.4699 52.7059C72.9725 52.7886 72.4658 52.7993 71.9653 52.7378Z" fill="#B16668"/>
<path d="M71.9653 52.7378C72.256 52.6522 72.5109 52.4743 72.6916 52.231C72.9191 51.8 73.2344 51.5366 73.3342 51.0577C73.362 50.8772 73.4061 50.6996 73.4659 50.527C73.5914 50.2616 73.774 50.0272 74.0006 49.8405C74.2041 49.649 74.3638 49.4415 74.5833 49.2379C74.687 49.1462 74.8786 49.0584 75.0023 49.1821C75.0497 48.9986 75.1279 48.8245 75.2338 48.6673C75.3495 48.5076 75.6688 48.2283 75.8683 48.4119C75.9207 48.4639 75.9615 48.5265 75.988 48.5954C76.1796 48.9945 76.3671 49.3936 76.5587 49.7927C76.6115 49.8905 76.6505 49.9953 76.6744 50.1039C76.6806 50.2361 76.6602 50.3682 76.6142 50.4923C76.5683 50.6164 76.4978 50.73 76.4071 50.8263C76.3111 50.9495 76.1967 51.0572 76.0678 51.1455C75.9122 51.2533 75.7286 51.3131 75.569 51.4209C75.2457 51.6404 75.0622 52.0434 74.707 52.219C74.4875 52.3268 74.2281 52.3308 74.0006 52.4186C73.7731 52.5064 73.6494 52.6181 73.4699 52.7059C72.9725 52.7886 72.4658 52.7993 71.9653 52.7378Z" fill="#B16668"/>
<path d="M77.9432 44.2705C77.1451 44.8172 76.3669 44.7773 75.2774 44.7933C74.9277 44.7867 74.5781 44.8081 74.2318 44.8572C74.1048 44.8768 73.9804 44.9102 73.8607 44.9569C73.7185 45.0393 73.5848 45.1355 73.4616 45.2443C72.8869 45.6433 72.1407 45.8708 71.7416 46.4814C71.5101 46.8326 71.4343 47.2795 71.2028 47.6228C71.0958 47.7617 70.9972 47.907 70.9075 48.0577C70.8661 48.1353 70.8464 48.2226 70.8507 48.3105C70.8549 48.3983 70.8828 48.4834 70.9315 48.5566C70.9871 48.6188 71.0569 48.6668 71.135 48.6963C71.4151 48.8091 71.7262 48.819 72.013 48.7242C72.5956 48.5247 72.9388 47.926 73.4297 47.5629C73.8101 47.2936 74.2422 47.1061 74.6987 47.0122C74.9056 46.9519 75.1163 46.9053 75.3293 46.8725C75.4992 46.8712 75.6689 46.8859 75.8361 46.9164C76.5784 46.9802 77.9432 44.2705 77.9432 44.2705Z" fill="#B16668"/>
<path d="M18.1421 18.4413C20.6572 19.8913 22.5242 22.2464 23.362 25.026L23.6733 26.2991C24.1895 29.1248 23.6235 32.0413 22.0878 34.4688C20.5522 36.8964 18.1593 38.6572 15.3849 39.4013C12.6105 40.1455 9.65767 39.8184 7.11334 38.4852C4.56901 37.152 2.6195 34.9102 1.6523 32.2054L1.28116 30.9523C0.771927 28.7792 0.909642 26.5046 1.67733 24.4088C2.44502 22.3131 3.80913 20.4877 5.60155 19.1577C7.39397 17.8277 9.53636 17.0512 11.7647 16.9239C13.993 16.7966 16.2099 17.3241 18.1421 18.4413Z" fill="white"/>
<path d="M1.65618 22.1689C0.101603 24.8687 -0.381134 28.0543 0.30377 31.0935C0.988674 34.1327 2.79116 36.8033 5.3535 38.5753C7.91585 40.3473 11.0508 41.0913 14.1361 40.6595C17.2214 40.2277 20.0316 38.6517 22.0091 36.2443L25.8242 36.8269C25.968 36.8494 26.1153 36.8277 26.2465 36.7647C26.3777 36.7016 26.4866 36.6002 26.5589 36.4739C26.6311 36.3475 26.6633 36.2022 26.6511 36.0571C26.639 35.9121 26.583 35.7742 26.4907 35.6616L24.0683 32.6606C25.1526 29.7395 25.0989 26.5174 23.9179 23.6341C22.7368 20.7507 20.5147 18.4169 17.6928 17.0959C14.8708 15.7748 11.6553 15.5632 8.68452 16.503C5.71376 17.4427 3.20497 19.4652 1.65618 22.1689ZM18.1261 18.4295C20.6435 19.876 22.5146 22.228 23.3579 25.0063L23.6692 26.2794C24.1885 29.1032 23.6267 32.0191 22.0954 34.4479C20.5641 36.8767 18.1753 38.6407 15.4035 39.3896C12.6316 40.1384 9.67951 39.8174 7.13344 38.4902C4.58737 37.163 2.6336 34.9268 1.66017 32.2256L1.28504 30.9685C0.774001 28.7965 0.909206 26.5225 1.67401 24.4263C2.43882 22.3302 3.79985 20.5034 5.58957 19.1709C7.37929 17.8383 9.51959 17.0582 11.747 16.9265C13.9744 16.7948 16.1918 17.3172 18.1261 18.4295Z" fill="#455A64"/>
<path d="M133.894 9.68937C131.184 8.64762 128.179 8.67758 125.49 9.77317L124.293 10.3319C121.762 11.7017 119.841 13.9753 118.913 16.6991C117.985 19.4228 118.118 22.3963 119.285 25.0263C120.453 27.6563 122.569 29.7493 125.212 30.8876C127.855 32.026 130.83 32.126 133.543 31.1676L134.74 30.6688C136.751 29.6986 138.433 28.1612 139.581 26.2462C140.728 24.3312 141.29 22.1223 141.197 19.8919C141.104 17.6614 140.361 15.507 139.058 13.694C137.755 11.8811 135.951 10.489 133.866 9.68937H133.894Z" fill="white"/>
<path d="M134.266 8.79163C131.527 7.73343 128.501 7.67863 125.726 8.63693C122.95 9.59523 120.603 11.5048 119.101 14.0275H115.246C115.1 14.0272 114.957 14.0712 114.837 14.1536C114.716 14.2359 114.623 14.3529 114.571 14.489C114.518 14.625 114.508 14.7739 114.541 14.9159C114.575 15.058 114.651 15.1865 114.759 15.2846L117.608 17.8786C117.133 20.1975 117.331 22.6039 118.179 24.8141C119.026 27.0243 120.488 28.9461 122.391 30.3532C124.295 31.7602 126.561 32.5938 128.922 32.7556C131.284 32.9174 133.642 32.4008 135.72 31.2666C137.798 30.1324 139.508 28.4279 140.649 26.354C141.79 24.2801 142.314 21.9232 142.16 19.5611C142.006 17.1991 141.18 14.9303 139.779 13.0222C138.378 11.1142 136.461 9.64628 134.254 8.79163H134.266ZM140.459 24.5112C139.413 27.2199 137.371 29.4267 134.752 30.681L133.555 31.1838C130.841 32.1297 127.871 32.0193 125.235 30.8745C122.599 29.7298 120.49 27.6346 119.329 25.0059C118.167 22.3771 118.038 19.4075 118.967 16.6877C119.895 13.968 121.814 11.6975 124.341 10.3281L125.538 9.76937C127.606 8.94286 129.87 8.73774 132.052 9.17916C134.235 9.62058 136.241 10.6894 137.826 12.2544C139.41 13.8195 140.503 15.8128 140.971 17.99C141.438 20.1672 141.261 22.4336 140.459 24.5112Z" fill="#455A64"/>
<path fill-rule="evenodd" clip-rule="evenodd" d="M130.576 16.3508L130.576 16.3508L129.749 17.1774C129.414 17.5122 128.872 17.5122 128.537 17.1775C128.202 16.8428 128.202 16.3001 128.537 15.9653L129.363 15.1386L129.363 15.1386C130.882 13.6204 133.343 13.6204 134.861 15.1386C136.379 16.6568 136.38 19.1183 134.861 20.6365L134.861 20.6365L134.035 21.4632C133.7 21.7979 133.157 21.7979 132.823 21.4632C132.488 21.1285 132.488 20.5858 132.822 20.251L133.649 19.4244L133.649 19.4243C134.498 18.5756 134.498 17.1995 133.649 16.3508C132.8 15.5021 131.424 15.5021 130.576 16.3508ZM127.177 18.5368C127.512 18.8715 127.512 19.4142 127.177 19.749L126.351 20.5756L126.351 20.5757C125.502 21.4244 125.502 22.8005 126.351 23.6492C127.2 24.4979 128.576 24.4979 129.424 23.6492L129.424 23.6492L130.251 22.8226C130.586 22.4878 131.128 22.4878 131.463 22.8225C131.798 23.1572 131.798 23.6999 131.463 24.0347L130.637 24.8614L130.637 24.8614C129.118 26.3796 126.657 26.3796 125.139 24.8614C123.62 23.3432 123.62 20.8817 125.139 19.3635L125.139 19.3635L125.965 18.5368C126.3 18.2021 126.843 18.2021 127.177 18.5368ZM131.892 19.3203C132.226 18.9855 132.226 18.4428 131.892 18.1081C131.557 17.7734 131.014 17.7734 130.68 18.1081L128.108 20.6795C127.773 21.0143 127.773 21.557 128.108 21.8917C128.443 22.2264 128.986 22.2264 129.32 21.8917L131.892 19.3203Z" fill="#FF9900"/>
<path fill-rule="evenodd" clip-rule="evenodd" d="M12.5757 24.3508L12.5756 24.3508L11.7491 25.1775C11.4144 25.5122 10.8716 25.5123 10.5369 25.1776C10.2021 24.8428 10.2021 24.3001 10.5368 23.9654L11.3634 23.1387L11.3635 23.1387C12.8817 21.6204 15.3431 21.6204 16.8613 23.1387C18.3795 24.6568 18.3795 27.1183 16.8614 28.6365L16.8613 28.6365L16.0348 29.4632C15.7001 29.798 15.1574 29.798 14.8226 29.4633C14.4879 29.1286 14.4878 28.5858 14.8225 28.2511L15.6491 27.4244L15.6492 27.4244C16.4979 26.5756 16.4979 25.1996 15.6492 24.3508C14.8004 23.5021 13.4244 23.5021 12.5757 24.3508ZM9.17739 26.5368C9.51215 26.8715 9.51218 27.4143 9.17746 27.749L8.35087 28.5757L8.35084 28.5757C7.5021 29.4245 7.5021 30.8005 8.35083 31.6493C9.19956 32.498 10.5756 32.498 11.4243 31.6493L11.4244 31.6493L12.2509 30.8226C12.5856 30.4879 13.1284 30.4878 13.4631 30.8225C13.7979 31.1573 13.7979 31.7 13.4632 32.0347L12.6366 32.8614L12.6365 32.8614C11.1183 34.3796 8.65685 34.3796 7.13865 32.8614C5.62046 31.3432 5.62045 28.8818 7.13862 27.3636L7.13865 27.3635L7.96521 26.5369C8.29992 26.2021 8.84264 26.2021 9.17739 26.5368ZM13.8918 27.3203C14.2265 26.9856 14.2265 26.4429 13.8918 26.1081C13.557 25.7734 13.0143 25.7734 12.6796 26.1081L10.1081 28.6796C9.77341 29.0143 9.77341 29.557 10.1081 29.8918C10.4429 30.2265 10.9856 30.2265 11.3203 29.8918L13.8918 27.3203Z" fill="#FF9900"/>
</svg>
